<?xml version="1.0" encoding="UTF-8"?>
<svg width="25.4mm" height="10.16mm" version="1.2" viewBox="0 0 25.4 10.16" xmlns="http://www.w3.org/2000/svg">
  <g id="icon">
    <g transform="scale(.26458)">
      <path d="m0 0v38.4h96v-38.4zm9.5996 11.617a2.7836 2.7836 0 0 1 2.7832 2.7832 2.7836 2.7836 0 0 1-2.7832 2.7832 2.7836 2.7836 0 0 1-2.7832-2.7832 2.7836 2.7836 0 0 1 2.7832-2.7832zm76.801 0a2.7836 2.7836 0 0 1 2.7832 2.7832 2.7836 2.7836 0 0 1-2.7832 2.7832 2.7836 2.7836 0 0 1-2.7832-2.7832 2.7836 2.7836 0 0 1 2.7832-2.7832zm-76.801 9.5996a2.7836 2.7836 0 0 1 2.7832 2.7832 2.7836 2.7836 0 0 1-2.7832 2.7832 2.7836 2.7836 0 0 1-2.7832-2.7832 2.7836 2.7836 0 0 1 2.7832-2.7832zm76.801 0a2.7836 2.7836 0 0 1 2.7832 2.7832 2.7836 2.7836 0 0 1-2.7832 2.7832 2.7836 2.7836 0 0 1-2.7832-2.7832 2.7836 2.7836 0 0 1 2.7832-2.7832z" fill="#15478b" stroke-linecap="round" stroke-linejoin="bevel" stroke-width=".52175"/>
    </g>
    <g transform="translate(0,-10.617)" fill="#e6e6e6" font-family="OCRA" font-size="1.5px">
      <text x="0.33050001" y="12.287201">VIN+</text>
      <text x="0.33050001" y="20.277201">GND-</text>
      <text x="19.647499" y="12.287201">VOUT+</text>
      <text x="20.731501" y="20.277201">GND-</text>
    </g>
    <g transform="translate(-2.8443 -13.911)" stroke-width=".26458">
      <g fill="#d1d3d4">
        <path d="m13.904 21.521h3.2808v1.1642h-3.2808z"/>
        <path d="m17.333 15.298h0.99483v1.143h-0.99483z"/>
        <path d="m12.761 15.298h0.99483v1.143h-0.99483z"/>
        <path d="m15.047 15.298h0.99483v1.143h-0.99483z"/>
      </g>
      <g fill="#999999">
        <path d="m18.201 17.245h-0.6985v-1.7568h0.6985z"/>
        <path d="m15.894 17.245h-0.6985v-1.7568h0.6985z"/>
        <path d="m13.586 17.245h-0.6985v-1.7568h0.6985z"/>
        <path d="m17.037 22.494h-2.9845v-1.7568h2.9845z"/>
      </g>
      <path d="m18.793 20.738h-6.4981v-3.4925h6.4981z" fill="#231f20"/>
      <path d="m18.793 20.738h-6.4981v-3.4925h6.4981z" fill="#333333"/>
      <path d="m18.793 20.738h-6.4981v-3.4925l6.35 3.3443z" fill="#666666"/>
      <path d="m12.443 20.589-0.14817 0.14816v-3.4925h6.4981l-0.14817 0.14816z" fill="#000000"/>
      <path d="m18.645 20.589h-6.2018v-3.1961h6.2018z" fill="#231f20"/>
      <g fill="#7c7c7c">
        <path d="m18.201 16.61h-0.6985v-0.48683h0.6985z"/>
        <path d="m15.894 16.61h-0.6985v-0.48683h0.6985z"/>
        <path d="m13.586 16.61h-0.6985v-0.48683h0.6985z"/>
        <path d="m17.037 21.859h-2.9845v-0.48683h2.9845z"/>
      </g>
    </g>
    <g transform="translate(-2.1883,-20.724)">
      <g transform="scale(1,-1)">
        <rect x="6.6348" y="-26.955" width="1.547" height=".8" fill="#d1d3d4" stroke-linecap="round" stroke-linejoin="bevel" stroke-width=".22355"/>
      </g>
      <g transform="scale(1,-1)">
        <rect x="6.6348" y="-25.445" width="1.547" height=".8" fill="#d1d3d4" stroke-linecap="round" stroke-linejoin="bevel" stroke-width=".22355"/>
      </g>
      <g transform="matrix(0 .35278 -.35287 0 9.4046 23.804)">
        <g transform="matrix(26.594,0,0,21.68,26.937,78.08)">
          <rect x="-.882" y="-3.422" width=".164" height=".162" fill="#af7e28"/>
          <path d="m-0.858-3.422h-0.034c-8e-3 0-0.015 0.01-0.015 0.022v0.119c0 0.012 7e-3 0.022 0.015 0.022h0.034c3e-3 -0.026 4e-3 -0.053 4e-3 -0.081 1e-3 -0.029 0-0.056-4e-3 -0.082z" fill="#bbbbbb"/>
          <path d="m-0.693-3.281v-0.119c0-0.012-7e-3 -0.022-0.015-0.022h-0.034c-3e-3 0.026-5e-3 0.053-5e-3 0.082s2e-3 0.055 4e-3 0.081h0.034c8e-3 -1e-3 0.016-0.01 0.016-0.022z" fill="#bbbbbb"/>
        </g>
        <rect x="1.715" y="4.79" width="1.775" height="1.758" fill="none"/>
        <rect x="7.849" y="4.781" width="1.775" height="1.774" fill="none"/>
      </g>
    </g>
    <g transform="translate(.6317 -20.724)">
      <g transform="scale(1,-1)">
        <rect x="6.6348" y="-26.955" width="1.547" height=".8" fill="#d1d3d4" stroke-linecap="round" stroke-linejoin="bevel" stroke-width=".22355"/>
      </g>
      <g transform="scale(1,-1)">
        <rect x="6.6348" y="-25.445" width="1.547" height=".8" fill="#d1d3d4" stroke-linecap="round" stroke-linejoin="bevel" stroke-width=".22355"/>
      </g>
      <g transform="matrix(0 .35278 -.35287 0 9.4046 23.804)">
        <g transform="matrix(26.594,0,0,21.68,26.937,78.08)">
          <rect x="-.882" y="-3.422" width=".164" height=".162" fill="#af7e28"/>
          <path d="m-0.858-3.422h-0.034c-8e-3 0-0.015 0.01-0.015 0.022v0.119c0 0.012 7e-3 0.022 0.015 0.022h0.034c3e-3 -0.026 4e-3 -0.053 4e-3 -0.081 1e-3 -0.029 0-0.056-4e-3 -0.082z" fill="#bbbbbb"/>
          <path d="m-0.693-3.281v-0.119c0-0.012-7e-3 -0.022-0.015-0.022h-0.034c-3e-3 0.026-5e-3 0.053-5e-3 0.082s2e-3 0.055 4e-3 0.081h0.034c8e-3 -1e-3 0.016-0.01 0.016-0.022z" fill="#bbbbbb"/>
        </g>
        <rect x="1.715" y="4.79" width="1.775" height="1.758" fill="none"/>
        <rect x="7.849" y="4.781" width="1.775" height="1.774" fill="none"/>
      </g>
    </g>
    <g transform="translate(9.9507,-20.724)">
      <g transform="scale(1,-1)">
        <rect x="6.6348" y="-26.955" width="1.547" height=".8" fill="#d1d3d4" stroke-linecap="round" stroke-linejoin="bevel" stroke-width=".22355"/>
      </g>
      <g transform="scale(1,-1)">
        <rect x="6.6348" y="-25.445" width="1.547" height=".8" fill="#d1d3d4" stroke-linecap="round" stroke-linejoin="bevel" stroke-width=".22355"/>
      </g>
      <g transform="matrix(0 .35278 -.35287 0 9.4046 23.804)">
        <g transform="matrix(26.594,0,0,21.68,26.937,78.08)">
          <rect x="-.882" y="-3.422" width=".164" height=".162" fill="#af7e28"/>
          <path d="m-0.858-3.422h-0.034c-8e-3 0-0.015 0.01-0.015 0.022v0.119c0 0.012 7e-3 0.022 0.015 0.022h0.034c3e-3 -0.026 4e-3 -0.053 4e-3 -0.081 1e-3 -0.029 0-0.056-4e-3 -0.082z" fill="#bbbbbb"/>
          <path d="m-0.693-3.281v-0.119c0-0.012-7e-3 -0.022-0.015-0.022h-0.034c-3e-3 0.026-5e-3 0.053-5e-3 0.082s2e-3 0.055 4e-3 0.081h0.034c8e-3 -1e-3 0.016-0.01 0.016-0.022z" fill="#bbbbbb"/>
        </g>
        <rect x="1.715" y="4.79" width="1.775" height="1.758" fill="none"/>
        <rect x="7.849" y="4.781" width="1.775" height="1.774" fill="none"/>
      </g>
    </g>
    <g transform="translate(12.771,-20.724)">
      <g transform="scale(1,-1)">
        <rect x="6.6348" y="-26.955" width="1.547" height=".8" fill="#d1d3d4" stroke-linecap="round" stroke-linejoin="bevel" stroke-width=".22355"/>
      </g>
      <g transform="scale(1,-1)">
        <rect x="6.6348" y="-25.445" width="1.547" height=".8" fill="#d1d3d4" stroke-linecap="round" stroke-linejoin="bevel" stroke-width=".22355"/>
      </g>
      <g transform="matrix(0 .35278 -.35287 0 9.4046 23.804)">
        <g transform="matrix(26.594,0,0,21.68,26.937,78.08)">
          <rect x="-.882" y="-3.422" width=".164" height=".162" fill="#af7e28"/>
          <path d="m-0.858-3.422h-0.034c-8e-3 0-0.015 0.01-0.015 0.022v0.119c0 0.012 7e-3 0.022 0.015 0.022h0.034c3e-3 -0.026 4e-3 -0.053 4e-3 -0.081 1e-3 -0.029 0-0.056-4e-3 -0.082z" fill="#bbbbbb"/>
          <path d="m-0.693-3.281v-0.119c0-0.012-7e-3 -0.022-0.015-0.022h-0.034c-3e-3 0.026-5e-3 0.053-5e-3 0.082s2e-3 0.055 4e-3 0.081h0.034c8e-3 -1e-3 0.016-0.01 0.016-0.022z" fill="#bbbbbb"/>
        </g>
        <rect x="1.715" y="4.79" width="1.775" height="1.758" fill="none"/>
        <rect x="7.849" y="4.781" width="1.775" height="1.774" fill="none"/>
      </g>
    </g>
    <g transform="translate(-2.7244 -12.776)">
      <g stroke-width=".26458">
        <path d="m7.8516 20.893v1.5452h0.80433v-1.5452z" fill="#d1d3d4"/>
        <path d="m10.053 20.893v1.5452h0.80433v-1.5452z" fill="#d1d3d4"/>
        <g fill="#cccccc">
          <path d="m10.37 22.311h-1.9897v-0.08467l0.27516-0.57149-0.27516-0.52916v-0.08467h1.9897v0.08467l-0.3175 0.52916 0.3175 0.5715z"/>
          <path d="m8.6559 22.206-0.021166-0.02117v0.02117h-0.042332v0.02117c-0.021166 0-0.021166-0.02117-0.021166-0.02117h-0.021167c-0.021166 0-0.021166-0.02117-0.021166-0.02117v-0.02117c0-0.02117 0-0.04233 0.021166-0.04233 0.021167-0.02117 0.021167-0.02117 0.0635-0.02117h0.021166v-0.04234h-0.084666v-0.02117h0.021167c0-0.02117 0.021166-0.02117 0.042333-0.02117h0.021166c0 0.02117 0.021166 0.02117 0.021166 0.02117s0 0.02117 0.021166 0.02117v0.14817zm-0.0635-0.02117h0.042332v-0.06351h-0.042332s-0.021166 0-0.021166 0.02117v0.04234z"/>
          <path d="m8.8041 22.015h0.021166v0.04233h-0.042332c-0.021166 0.02117-0.021166 0.02117-0.021166 0.02117v0.127h-0.042333v-0.1905h0.042333v0.04233-0.02117h0.021166l0.021166-0.02117z"/>
          <path d="m8.9946 22.206v-0.10583c0-0.02117 0-0.04233-0.021166-0.04233h-0.063498v0.14817h-0.042333v-0.1905h0.021166l0.021166 0.04233v-0.02117h0.021166v-0.02117h0.021166c0.021166 0 0.042333 0.02117 0.042333 0.02117 0.021166 0.02117 0.021166 0.02117 0.021166 0.0635v0.10583z"/>
          <path d="m9.1851 22.206v-0.02117c-0.021166 0-0.021166 0.02117-0.021166 0.02117h-0.021166c-0.021166 0.02117-0.021166 0.02117-0.021166 0.02117s-0.021166-0.02117-0.021166-0.02117h-0.021166s0-0.02117-0.021166-0.02117v-0.02117c0-0.02117 0.021166-0.04233 0.021166-0.04233 0.021166-0.02117 0.042333-0.02117 0.0635-0.02117h0.042333v-0.02117h-0.021166v-0.02117h-0.084665v-0.02117h0.021166c0.021166-0.02117 0.021166-0.02117 0.042333-0.02117h0.021166c0.021166 0.02117 0.021166 0.02117 0.021166 0.02117 0.021166 0 0.021166 0.02117 0.021166 0.02117v0.14817zm-0.063499-0.02117h0.042332v-0.02117c0.021166 0 0.021166-0.02117 0.021166-0.02117v-0.02117h-0.063499l-0.021166 0.02117v0.04234z"/>
          <path d="m9.3544 22.015s0.021166 0 0.021166 0.02117h0.021166c0.021166 0.02117 0.021166 0.02117 0.021166 0.04233v0.08466s0 0.02117-0.021166 0.02117c0 0.02117 0 0.02117-0.021166 0.02117 0 0-0.021166 0.02117-0.021166 0.02117s-0.021166 0-0.021166-0.02117h-0.021166s-0.021166-0.02117-0.021166-0.02117v0.02117h-0.021167v-0.254h0.021166v0.10584c0-0.02117 0.021166-0.02117 0.021166-0.02117s0.021166-0.02117 0.021166-0.02117h0.021166zm0 0.04233h-0.042333c0 0.02117-0.021166 0.02117-0.021166 0.02117v0.0635c0 0.02117 0.021166 0.02117 0.021166 0.02117v0.02117h0.042333s0.021166 0 0.021166-0.02117c0.021166 0 0.021166-0.02117 0.021166-0.04233 0-0.02117 0-0.04233-0.021166-0.0635h-0.021166z"/>
          <path d="m9.4603 22.184h0.021166v-0.02117h0.021166v0.06351h-0.021166v-0.02117h-0.021166z"/>
          <path d="m9.6508 22.015c0.021166 0 0.021166 0 0.021166 0.02117 0.021166 0 0.021166 0 0.042333 0.02117v0.127c-0.021166 0.02117-0.021166 0.02117-0.042333 0.02117 0 0 0 0.02117-0.021166 0.02117 0 0-0.021166 0-0.021166-0.02117h-0.021166v-0.02117h-0.021166v0.02117h-0.021167v-0.254h0.042333v0.0635h-0.021166v0.04234h0.021166v-0.02117c0.021166 0 0.021166-0.02117 0.021166-0.02117h0.021167zm0 0.04233h-0.042332v0.10584c0 0.02117 0 0.02117 0.021166 0.02117h0.021166s0.021166 0 0.021166-0.02117c0.021166 0 0.021166-0.02117 0.021166-0.04233 0-0.02117 0-0.04233-0.021166-0.0635h-0.021166z"/>
          <path d="m9.7989 22.206h-0.021166v-0.254h0.021166z"/>
          <path d="m9.9894 22.206v-0.02117c-0.021166 0-0.021166 0.02117-0.021166 0.02117h-0.021166c0 0.02117-0.021166 0.02117-0.021166 0.02117s-0.021166-0.02117-0.021166-0.02117h-0.021166c0-0.02117-0.021166-0.02117-0.021166-0.02117v-0.16933h0.042332v0.16933h0.042332c0.021166 0 0.021166 0 0.021166-0.02117v-0.02117c0.021166 0 0.021166 0 0.021166-0.02117v-0.10583h0.021166v0.1905z"/>
          <path d="m10.138 22.227-0.02117-0.02117c-0.02117 0-0.02117 0-0.02117-0.02117-0.02117 0-0.02117-0.02117-0.02117-0.02117 0-0.02117-0.02117-0.02117-0.02117-0.04233 0-0.02117 0.02117-0.02117 0.02117-0.04233v-0.02117c0.02117-0.02117 0.02117-0.02117 0.04233-0.02117 0-0.02117 0.02117-0.02117 0.02117-0.02117 0.02117 0 0.02117 0 0.04233 0.02117h0.02117v0.04233c0.02117 0 0.02117 0.02117 0.02117 0.02117v0.02117h-0.127c0 0.02117 0 0.04233 0.02117 0.04233 0 0.02117 0.02117 0.02117 0.02117 0.02117h0.06351v0.02117h-0.02117s-0.02117 0-0.02117 0.02117h-0.02116zm0-0.16933h-0.02117c-0.02117 0.02117-0.02117 0.02117-0.02117 0.04233h0.08467v-0.04234h-0.04234z"/>
        </g>
        <path d="m10.349 22.29h-1.9897v-0.33866l0.29633-0.29633-0.29633-0.29633v-0.3175h1.9897v0.42333l-0.29633 0.1905 0.29633 0.1905z" fill="#ffffcc"/>
        <path d="m9.7989 21.719c0 0.08467-0.0635 0.14816-0.14817 0.14816-0.084666 0-0.14817-0.0635-0.14817-0.14816 0-0.08467 0.0635-0.14817 0.14817-0.14817 0.084666 0 0.14817 0.0635 0.14817 0.14817z" fill="#c4b969"/>
      </g>
      <g fill="none" stroke="#c4b969" stroke-linejoin="round" stroke-width=".047789">
        <path d="m9.0369 21.613v0.254h-0.46566" stroke-linecap="round"/>
        <path d="m9.6508 21.719v-0.42333"/>
        <path d="m9.6508 21.295h0.4445" stroke-linecap="round"/>
      </g>
      <path d="m8.8464 21.444h0.35983v0.35983h-0.35983z" fill="#c4b969" stroke="#c4b969" stroke-linecap="round" stroke-linejoin="round" stroke-width=".047789"/>
      <path d="m9.2063 21.613c0 0.10583-0.084666 0.1905-0.16933 0.1905-0.10583 0-0.1905-0.08467-0.1905-0.1905 0-0.08467 0.084666-0.16933 0.1905-0.16933 0.084666 0 0.16933 0.08467 0.16933 0.16933z" fill="#cccccc" stroke-width=".26458"/>
      <path d="m8.9311 21.528h0.1905v0.1905h-0.1905z" fill="#000000" stroke-width=".26458"/>
      <path d="m9.0369 21.613c0.0635-0.04233 0.52916 0 0.61383 0.127" fill="none" stroke="#ffcc00" stroke-linecap="round" stroke-linejoin="round" stroke-width=".011947"/>
      <g stroke-width=".26458">
        <path d="m8.8253 21.126c-0.021166 0-0.063499 0.04233-0.063499 0.04233s-0.0635 0.4445-0.0635 0.40216v-0.42333c0-0.0635 0.042333-0.08467 0.084666-0.08467h0.508c0.042333 0-0.46566 0.0635-0.46566 0.0635z" fill="#cccccc"/>
        <path d="m9.9048 22.163c0.021166 0 0.042333-0.04233 0.042333-0.04233s0.084666-0.4445 0.084666-0.40216v0.42333c0 0.0635-0.042333 0.08467-0.10601 0.08467h-0.5079c-0.042333 0 0.48683-0.0635 0.48683-0.0635z" fill="#cccccc"/>
        <path d="m8.6559 21.041h1.397v1.2488h-1.397z" fill="#ffffff"/>
        <path d="m10.349 21.846v-0.381c-0.10583 0-0.1905 0.08467-0.1905 0.1905s0.08467 0.1905 0.1905 0.1905zm0 0.40216h-0.29633v-1.1853h0.29633z" fill="#c4b969"/>
        <path d="m8.6559 21.909c-0.084666 0.08467-0.1905 0.14817-0.3175 0.14817v-0.80433c0.127 0 0.23283 0.0635 0.3175 0.14816zm-0.29633-0.4445c0.10583 0 0.1905 0.08467 0.1905 0.1905s-0.084666 0.1905-0.1905 0.1905z" fill="#c4b969"/>
        <path d="m8.3596 22.206h0.29633v-0.254c-0.084666 0.10583-0.1905 0.14816-0.29633 0.14816z" fill="#00cc33"/>
        <path d="m8.6559 21.105h-0.29633v0.10583c0.10583 0 0.21167 0.04233 0.29633 0.14816z" fill="#00cc33"/>
      </g>
    </g>
    <g transform="translate(1.5569 -16.447)" stroke-width=".26458">
      <path d="m15.942 24.565v1.5452h0.80433v-1.5452z" fill="#d1d3d4"/>
      <path d="m17.678 24.565v1.5452h0.80433v-1.5452z" fill="#d1d3d4"/>
      <path d="m16.196 24.713h2.0108v1.2488h-2.0108z" fill="#222222"/>
      <path d="m16.196 24.713h0.35983v1.2488h-0.35983z" fill="#bbbbbb"/>
      <path d="m17.847 24.713h0.35983v1.2488h-0.35983z" fill="#bbbbbb"/>
      <g fill="#ffffff">
        <path d="m16.746 25.517v-0.40216h0.14817c0.02117 0 0.04233 0 0.04233 0.02117 0 0 0.02117 0.02117 0.02117 0.04233v0.04233c0 0.02117-0.02117 0.04233-0.02117 0.0635s-0.02117 0.02117-0.04233 0.02117h-0.02117l0.08467 0.21166c0 0.02117 0 0.02117-0.02117 0.02117v0.02117c-0.02117 0-0.02117-0.02117-0.02117-0.02117l-0.10583-0.23284h-0.04233v0.23283c0 0.02117 0 0.02117-0.02117 0.02117l-0.02117-0.02117c0.02117 0 0.02117 0 0.02117-0.02117zm0.04233-0.254h0.10583c0.02117 0 0.02117 0 0.02117-0.02117 0 0 0.02117 0 0.02117-0.02117v-0.02117c0-0.02117 0-0.02117-0.02117-0.02117 0-0.02117 0-0.02117-0.02117-0.02117h-0.10583z"/>
        <path d="m17 25.496v-0.16933c0.02117 0 0.02117-0.02117 0.02117-0.02117v-0.16933l0.02117-0.02117h0.12701v0.1905c0.02117 0 0.02117 0.02117 0.02117 0.02117 0.02117 0 0.02117 0.02117 0.02117 0.04233v0.127c0 0.02117 0 0.04233-0.02117 0.04233 0 0 0 0.02117-0.02117 0.02117h-0.127c-0.02117 0-0.02117-0.02117-0.02117-0.02117-0.02117-0.02117-0.02117-0.02117-0.02117-0.04233zm0.04233-0.127v0.127h0.127v-0.127zm0.04233-0.21166v0.14817h0.04233v-0.14817z"/>
        <path d="m17.254 25.496v-0.35983c0.02117-0.02117 0.02117-0.02117 0.04233-0.02117h0.127s0.02117 0 0.02117 0.02117c0.02117 0 0.02117 0.02117 0.02117 0.02117v0.33866c0 0.02117 0 0.04233-0.02117 0.04233l-0.02117 0.02117h-0.127c-0.02117 0-0.02117-0.02117-0.04233-0.02117zm0.16933 0v-0.33866h-0.127v0.33866z"/>
        <path d="m17.593 25.496h0.10583v-0.127h-0.127v-0.254h0.16934v0.04234l-0.02117 0.02117h-0.127v0.127h0.08467c0.02117 0 0.02117 0.02117 0.04233 0.02117v0.21166c-0.02117 0-0.02117 0.02117-0.04233 0.02117h-0.08467c-0.02117 0-0.02117 0-0.04233-0.02117h-0.04233v-0.0635h0.04234l0.04233 0.02117z"/>
      </g>
    </g>
    <g transform="translate(0,-10.617)" fill="none" stroke="#9a916c" stroke-linecap="round" stroke-linejoin="bevel" stroke-width=".508">
      <circle cx="2.54" cy="14.427" r=".7365"/>
      <circle cx="2.54" cy="16.967" r=".7365"/>
      <circle cx="22.86" cy="14.428" r=".7365"/>
      <circle cx="22.86" cy="16.967" r=".7365"/>
    </g>
  </g>
</svg>
