<?xml version='1.0' encoding='UTF-8' standalone='no'?>
<svg
  xmlns:dc="http://purl.org/dc/elements/1.1/"
  xmlns:cc="http://creativecommons.org/ns#"
  xmlns:rdf="http://www.w3.org/1999/02/22-rdf-syntax-ns#"
  xmlns:svg="http://www.w3.org/2000/svg"
  xmlns="http://www.w3.org/2000/svg"
  x="0px"
  height="0.60770172in"
  version="1.1"
  id="svg2"
  viewBox="0 0 469.86945 607.70187"
  gorn="0"
  y="0px"
  width="0.46986932in"
  xml:space="preserve">
  <metadata
    id="metadata28">
    <rdf:RDF>
      <cc:Work
        rdf:about="">
        <dc:format>image/svg+xml</dc:format>
        <dc:type
          rdf:resource="http://purl.org/dc/dcmitype/StillImage"
        />
        <dc:title/>
      </cc:Work>
    </rdf:RDF>
  </metadata>
  <defs
    id="defs26">
        </defs>
  <desc
    id="desc2">
    <referenceFile>prefix0000_83292fbb93d5ca46b20ab4c9315c9cb9_1_breadboard.svg</referenceFile>
  </desc>
  <g
    id="breadboard">
    <rect
      width="25.209856"
      y="399.17389"
      gorn="0.3.7"
      id="rect129"
      height="207.8479"
      x="312.30618"
      fill="#8c8c8c"
      stroke-width="9.99992085"
    />
    <polygon
      transform="matrix(9.999943,0,0,9.9998993,152.10709,240.1255)"
      id="polygon131"
      gorn="0.3.9.0"
      points="13.781,26.049 13.781,13.87 20.782,13.87 20.782,26.049 18.539,27.049 16.021,27.049 "
      fill="#8c8c8c"
    />
    <ellipse
      cx="285.98941"
      cy="-77.231956"
      ry="21.18848"
      gorn="0.3.0.0"
      rx="34.355122"
      id="path3758"
      transform="matrix(0.93814607,0.34623972,-0.22759146,0.97375671,0,0)"
      fill="#b3b3b3"
      stroke-width="10.45686245"
    />
    <rect
      width="85.863487"
      y="919.77985"
      gorn="0.3.1.0"
      id="rect3748"
      x="420.33765"
      height="14.775928"
      transform="matrix(0.22741352,-0.97379828,0.33532451,0.94210269,0,0)"
      fill="#666666"
      stroke-width="12.0460701"
    />
    <rect
      x="112.2627"
      height="74.37925"
      id="connector0pin"
      gorn="0.3.4"
      y="533.32263"
      width="25.199858"
      fill="#8c8c8c"
      stroke-width="9.99992085"
    />
    <rect
      x="112.2627"
      height="16.469833"
      id="connector0terminal"
      gorn="0.3.2"
      y="591.17206"
      width="25.199858"
      fill="#8c8c8c"
      stroke-width="9.99992085"
    />
    <rect
      x="212.25212"
      height="74.37925"
      id="connector1pin"
      gorn="0.3.5"
      y="533.32263"
      width="25.209856"
      fill="#8c8c8c"
      stroke-width="9.99992085"
    />
    <rect
      x="212.25212"
      height="16.469833"
      id="connector1terminal"
      gorn="0.3.3"
      y="591.17206"
      width="25.209856"
      fill="#8c8c8c"
      stroke-width="9.99992085"
    />
    <rect
      width="25.209856"
      y="533.32263"
      gorn="0.3.5"
      id="connector2pin"
      height="74.37925"
      x="312.42618"
      fill="#8c8c8c"
      stroke-width="9.99992085"
    />
    <rect
      width="25.209856"
      y="591.17206"
      gorn="0.3.3"
      id="connector2terminal"
      height="16.469833"
      x="312.42618"
      fill="#8c8c8c"
      stroke-width="9.99992085"
    />
    <rect
      x="112.14269"
      height="207.8479"
      id="rect4"
      gorn="0.3.6"
      y="399.17389"
      width="25.199858"
      fill="#8c8c8c"
      stroke-width="9.99992085"
    />
    <rect
      x="212.13213"
      height="207.8479"
      id="rect6"
      gorn="0.3.7"
      y="399.17389"
      width="25.209856"
      fill="#8c8c8c"
      stroke-width="9.99992085"
    />
    <polygon
      points="6.022,27.049 3.781,26.049 3.781,13.87 10.781,13.87 10.781,26.049 8.541,27.049 "
      gorn="0.3.8.0"
      id="polygon21"
      transform="matrix(9.999943,0,0,9.9998993,51.933035,240.1255)"
      fill="#8c8c8c"
    />
    <polygon
      points="16.021,27.049 13.781,26.049 13.781,13.87 20.782,13.87 20.782,26.049 18.539,27.049 "
      gorn="0.3.9.0"
      id="polygon23"
      transform="matrix(9.999943,0,0,9.9998993,51.933035,240.1255)"
      fill="#8c8c8c"
    />
    <rect
      x="39.753101"
      height="46.489532"
      id="rect49"
      gorn="0.3.10"
      y="322.62469"
      width="368.89426"
      stroke-width="8.83411884"
    />
    <rect
      width="15.496943"
      y="337.76553"
      gorn="0.3.11.0"
      id="rect3750"
      height="82.861992"
      x="407.56482"
      transform="matrix(0.99989385,0.01457007,-0.01280706,0.99991799,0,0)"
      fill="#666666"
      stroke-width="9.99992752"
    />
    <rect
      x="39.753101"
      height="184.71814"
      id="rect27"
      gorn="0.3.12"
      y="286.58499"
      width="370.92929"
      fill="#1a1a1a"
      stroke-width="8.85845184"
    />
    <rect
      x="39.753101"
      height="56.029545"
      id="rect51"
      gorn="0.3.13"
      y="286.58499"
      width="391.25491"
      fill="#808080"
      stroke-width="8.88271904"
    />
    <rect
      width="15.467389"
      y="212.92157"
      gorn="0.3.14.0"
      id="rect3754"
      x="510.07016"
      height="60.692921"
      transform="matrix(0.98558441,0.16918443,-0.33789998,0.94118202,0,0)"
      fill="#666666"
      stroke-width="10.07688904"
    />
    <rect
      width="69.139053"
      y="-77.658394"
      gorn="0.3.15.0"
      id="rect51_1_"
      height="303.66455"
      x="258.61929"
      transform="matrix(0.940183,0.34066981,-0.13931607,0.99024797,0,0)"
      fill="#b3b3b3"
      stroke-width="10.10931492"
    />
    <rect
      height="113.1413"
      x="103.61816"
      id="rect3725"
      gorn="0.3.16"
      y="349.79459"
      width="231.6624"
      fill="#e6e6e6"
      stroke-width="9.99992085"
    />
    <rect
      width="57.012211"
      y="149.17747"
      gorn="0.3.17.0"
      id="rect3727"
      x="154.90286"
      height="68.120407"
      transform="matrix(0.68988138,0.72392243,-0.4917885,0.87071469,0,0)"
      fill="#ffffff"
      stroke-width="9.08147812"
    />
    <rect
      width="16.630207"
      y="-154.04297"
      gorn="0.3.18.0"
      id="rect3752"
      x="601.17786"
      height="85.492462"
      transform="matrix(0.67697525,0.73600578,-0.15047621,0.98861363,0,0)"
      fill="#666666"
      stroke-width="11.32255077"
    />
    <rect
      height="30.459694"
      x="150.91628"
      id="rect3731"
      gorn="0.3.19"
      y="238.66673"
      width="216.4425"
      fill="#b3b3b3"
      stroke-width="9.99992085"
    />
    <rect
      x="209.48582"
      height="30.459694"
      id="rect3733"
      gorn="0.3.20"
      y="208.20703"
      width="100.42975"
      fill="#808080"
      stroke-width="9.99992085"
    />
    <rect
      width="254.76994"
      y="290.41684"
      gorn="0.3.21.0"
      id="rect49_1_"
      height="46.493298"
      x="121.58853"
      transform="matrix(0.99998201,0.00599754,-0.01607392,0.99987081,0,0)"
      stroke-width="10.00017357"
    />
    <rect
      height="49.60743"
      x="185.46283"
      id="rect3735"
      gorn="0.3.22"
      y="268.23282"
      width="135.34622"
      fill="#808080"
      stroke-width="9.99992085"
    />
    <rect
      width="37.21862"
      y="217.85724"
      gorn="0.3.23.0"
      id="rect3737"
      x="263.57809"
      height="47.665077"
      transform="matrix(0.90699226,0.42114729,-0.59854205,0.80109139,0,0)"
      fill="#808080"
      stroke-width="8.97904968"
    />
    <rect
      width="28.905731"
      y="392.49759"
      gorn="0.3.24.0"
      id="rect3739"
      height="25.090857"
      x="385.13647"
      transform="matrix(0.99993533,-0.01137217,-0.66378162,0.74792644,0,0)"
      fill="#808080"
      stroke-width="10.32365322"
    />
    <rect
      width="24.100378"
      y="301.88739"
      gorn="0.3.25.0"
      id="rect3741"
      x="491.94995"
      height="54.498688"
      transform="matrix(0.99963227,0.02711675,-0.40075266,0.91618628,0,0)"
      fill="#808080"
      stroke-width="9.22725201"
    />
    <rect
      width="7.7456985"
      y="63.718235"
      gorn="0.3.26.0"
      id="rect3756"
      height="69.665649"
      x="490.32031"
      transform="matrix(0.84345648,0.53719751,0.01732098,0.99984998,0,0)"
      fill="#666666"
      stroke-width="10.94982052"
    />
    <rect
      width="45.42791"
      y="-155.20694"
      gorn="0.3.27.0"
      id="rect3729"
      height="100.06584"
      x="608.18451"
      transform="matrix(0.69575041,0.71828362,-0.09740764,0.99524457,0,0)"
      fill="#ffffff"
      stroke-width="10.17307186"
    />
  </g>
</svg>
