<svg xmlns="http://www.w3.org/2000/svg" height="17.04mm" viewBox="0 0 95.4425 48.3024"  width="33.67mm">
    <desc >
        <referenceFile >DUAL_MOS_PWM_CTRL_BRDv2_pcb.svg</referenceFile>
    </desc>
    <defs >
        <style >.cls-1{fill:#fff;}.cls-2{fill:#9a916c;}</style>
    </defs>
    <g  id="silkscreen" gorn="0.2">
        <rect class="cls-1" x="-0.0077" height="48.3024"  id="rectangle" y="-0.0027" width="95.4425" gorn="0.2.0"/>
    </g>
    <g  id="pcb" gorn="0.3">
        <g  id="copper0" gorn="0.3.0">
            <g  id="copper3" gorn="0.3.0.0">
                <g  id="_-VLOAD" data-name="-VLOAD" gorn="0.3.0.0.0">
                    <path class="cls-2"  d="M16.3209,8.9143A1.65,1.65,0,1,1,17.9654,7.27,1.6467,1.6467,0,0,1,16.3209,8.9143Zm0-2.62a.97.97,0,1,0,0,1.9405.97.97,0,0,0,0-1.94Z"/>
                    <path  id="connector7pad" d="M16.3205,5.6894a1.575,1.575,0,1,1-1.57,1.58,1.5768,1.5768,0,0,1,1.57-1.58m0,2.62a1.045,1.045,0,1,0-1.05-1.04,1.0411,1.0411,0,0,0,1.05,1.04m0-2.77a1.725,1.725,0,1,0,1.72,1.73,1.7221,1.7221,0,0,0-1.72-1.73Zm0,2.62a.895.895,0,1,1,.89-.89.9006.9006,0,0,1-.89.89Z" gorn="0.3.0.0.0.1"/>
                </g>
                <g  id="_VLOAD" data-name="+VLOAD" gorn="0.3.0.0.1">
                    <path class="cls-2"  d="M5.4359,8.9141A1.65,1.65,0,1,1,7.08,7.27,1.6467,1.6467,0,0,1,5.4359,8.9141Zm0-2.62a.97.97,0,1,0,0,1.94.97.97,0,0,0,0-1.94Z"/>
                    <path  id="connector5pad" d="M5.4355,5.6894a1.575,1.575,0,1,1-1.57,1.58,1.5768,1.5768,0,0,1,1.57-1.58m0,2.62a1.045,1.045,0,1,0-1.05-1.04,1.0412,1.0412,0,0,0,1.05,1.04m0-2.77a1.725,1.725,0,1,0,1.72,1.73,1.7221,1.7221,0,0,0-1.72-1.73Zm0,2.62a.895.895,0,1,1,.89-.89.9007.9007,0,0,1-.89.89Z" gorn="0.3.0.0.1.1"/>
                </g>
            </g>
            <g  id="copper2" gorn="0.3.0.1">
                <g  id="GND" gorn="0.3.0.1.0">
                    <path class="cls-2"  d="M90.3211,20.4931a1.65,1.65,0,1,1,1.6446-1.6445A1.6467,1.6467,0,0,1,90.3211,20.4931Zm0-2.62a.97.97,0,1,0,0,1.9405.97.97,0,0,0,0-1.94Z"/>
                    <path  id="connector8pin" d="M90.3207,17.2683a1.575,1.575,0,1,1-1.57,1.58,1.5768,1.5768,0,0,1,1.57-1.58m0,2.62a1.0451,1.0451,0,1,0-1.05-1.04,1.0412,1.0412,0,0,0,1.05,1.04m0-2.77a1.725,1.725,0,1,0,1.72,1.73,1.722,1.722,0,0,0-1.72-1.73Zm0,2.62a.8951.8951,0,1,1,.89-.89.9006.9006,0,0,1-.89.89Z" gorn="0.3.0.1.0.1"/>
                </g>
                <g  id="TRIG_PWM" data-name="TRIG/PWM" gorn="0.3.0.1.1">
                    <path class="cls-2"  d="M90.3211,31.0994a1.65,1.65,0,1,1,1.6446-1.6445A1.6467,1.6467,0,0,1,90.3211,31.0994Zm0-2.62a.97.97,0,1,0,0,1.94.97.97,0,0,0,0-1.94Z"/>
                    <path  id="connector9pin" d="M90.3207,27.8746a1.575,1.575,0,1,1-1.57,1.58,1.5767,1.5767,0,0,1,1.57-1.58m0,2.62a1.0451,1.0451,0,1,0-1.05-1.04,1.0412,1.0412,0,0,0,1.05,1.04m0-2.77a1.725,1.725,0,1,0,1.72,1.73,1.722,1.722,0,0,0-1.72-1.73Zm0,2.62a.8951.8951,0,1,1,.89-.89.9007.9007,0,0,1-.89.89Z" gorn="0.3.0.1.1.1"/>
                </g>
            </g>
            <g  id="copper1" gorn="0.3.0.2">
                <g  id="_-VIN" data-name="-VIN" gorn="0.3.0.2.0">
                    <path class="cls-2"  d="M16.3205,41.8817a1.6495,1.6495,0,1,1,1.6445-1.6446A1.6467,1.6467,0,0,1,16.3205,41.8817Zm0-2.6192a.97.97,0,1,0,.9649.9746A.9763.9763,0,0,0,16.3205,39.2625Z"/>
                    <path  id="connector10pin" d="M16.32,38.6573a1.575,1.575,0,1,1-1.57,1.58,1.5768,1.5768,0,0,1,1.57-1.58m0,2.62a1.045,1.045,0,1,0-1.05-1.04,1.0412,1.0412,0,0,0,1.05,1.04m0-2.77a1.725,1.725,0,1,0,1.72,1.73,1.7222,1.7222,0,0,0-1.72-1.73Zm0,2.62a.895.895,0,1,1,.89-.89.9006.9006,0,0,1-.89.89Z" gorn="0.3.0.2.0.1"/>
                </g>
                <g  id="_VIN" data-name="+VIN" gorn="0.3.0.2.1">
                    <path class="cls-2"  d="M5.4359,41.8811A1.65,1.65,0,1,1,7.08,40.2365,1.6467,1.6467,0,0,1,5.4359,41.8811Zm0-2.62a.97.97,0,1,0,0,1.9405.97.97,0,0,0,0-1.94Z"/>
                    <path  id="connector11pin" d="M5.4355,38.6563a1.575,1.575,0,1,1-1.57,1.58,1.5768,1.5768,0,0,1,1.57-1.58m0,2.62a1.045,1.045,0,1,0-1.05-1.04,1.0412,1.0412,0,0,0,1.05,1.04m0-2.77a1.725,1.725,0,1,0,1.72,1.73,1.7221,1.7221,0,0,0-1.72-1.73Zm0,2.62a.895.895,0,1,1,.89-.89.9007.9007,0,0,1-.89.89Z" gorn="0.3.0.2.1.1"/>
                </g>
            </g>
        </g>
    </g>
</svg>
