<?xml version='1.0' encoding='UTF-8' standalone='no'?>
<svg
  xmlns:dc="http://purl.org/dc/elements/1.1/"
  xmlns:cc="http://creativecommons.org/ns#"
  xmlns:rdf="http://www.w3.org/1999/02/22-rdf-syntax-ns#"
  xmlns:svg="http://www.w3.org/2000/svg"
  xmlns="http://www.w3.org/2000/svg"
  version="1.1"
  id="Layer_1"
  x="0px"
  y="0px"
  width="0.78074604in"
  height="0.57948953in"
  viewBox="0 0 780.74629 579.48973"
  enable-background="new 0 0 468.238 151.2"
  xml:space="preserve">
  <metadata
    id="metadata5935">
    <rdf:RDF>
      <cc:Work
        rdf:about="">
        <dc:format>image/svg+xml</dc:format>
        <dc:type
          rdf:resource="http://purl.org/dc/dcmitype/StillImage"
        />
        <dc:title/>
      </cc:Work>
    </rdf:RDF>
  </metadata>
  <defs
    id="defs5933">
      </defs>
  <g
    id="breadboard">
    <g
      id="breadboardbreadboard">
      <g
        id="background">
        <rect
          y="120.02712"
          width="94.381546"
          height="343.46259"
          id="rect17223"
          x="686.36481"
          fill="#d9d9d9"
          stroke-width="13.01760674"
        />
      </g>
      <rect
        y="119.96766"
        width="94.381546"
        height="343.46259"
        id="rect17221"
        x="-8.8817842e-016"
        fill="#d9d9d9"
        stroke-width="13.01760674"
      />
      <rect
        x="94.381546"
        id="rect6"
        height="579.48975"
        width="599.00018"
        y="1.7763568e-015"
        fill="#d9d9d9"
        stroke-width="13.02176762"
      />
      <g
        id="sockets">
        <g
          id="pin1A"
          transform="matrix(13.014202,0,0,13.021012,53.435499,-1011.7032)">
          <path
            d="m 8.526,115.2 c 0,-1.322 1.072,-2.394 2.394,-2.394 1.322,0 2.394,1.071 2.394,2.394"
            id="path29"
            fill="#bfbfbf"
          />
          <path
            d="m 13.313,115.2 c 0,1.322 -1.072,2.394 -2.394,2.394 -1.322,0 -2.394,-1.071 -2.394,-2.394"
            id="path31"
            fill="#e6e6e6"
          />
          <circle
            cx="10.92"
            cy="115.2"
            r="1.197"
            id="circle33"
            fill="#383838"
          />
        </g>
        <g
          id="pin1B"
          transform="matrix(13.014202,0,0,13.021012,53.422485,-1017.9389)">
          <path
            d="m 8.526,108 c 0,-1.322 1.072,-2.395 2.394,-2.395 1.322,0 2.394,1.072 2.394,2.395"
            id="path36"
            fill="#bfbfbf"
          />
          <path
            d="m 13.313,108 c 0,1.321 -1.072,2.393 -2.394,2.393 -1.322,0 -2.393,-1.071 -2.393,-2.393"
            id="path38"
            fill="#e6e6e6"
          />
          <circle
            cx="10.92"
            cy="108"
            r="1.197"
            id="circle40"
            fill="#383838"
          />
        </g>
        <g
          id="pin1C"
          transform="matrix(13.014202,0,0,13.021012,53.435499,-1024.2007)">
          <path
            d="m 8.526,100.799 c 0,-1.321 1.072,-2.393 2.394,-2.393 1.322,0 2.394,1.071 2.394,2.393"
            id="path43"
            fill="#bfbfbf"
          />
          <path
            d="m 13.313,100.799 c 0,1.322 -1.072,2.395 -2.394,2.395 -1.322,0 -2.394,-1.072 -2.394,-2.395 v 0"
            id="path45"
            fill="#e6e6e6"
          />
          <circle
            cx="10.92"
            cy="100.8"
            r="1.197"
            id="circle47"
            fill="#383838"
          />
        </g>
        <g
          id="pin1D"
          transform="matrix(13.014202,0,0,13.021012,53.422485,-1030.4495)">
          <path
            d="m 8.526,93.6 c 0,-1.322 1.072,-2.395 2.394,-2.395 1.322,0 2.394,1.072 2.394,2.395"
            id="path50"
            fill="#bfbfbf"
          />
          <path
            d="m 13.313,93.6 c 0,1.322 -1.072,2.394 -2.394,2.394 -1.322,0 -2.393,-1.072 -2.393,-2.394 v 0"
            id="path52"
            fill="#e6e6e6"
          />
          <circle
            cx="10.92"
            cy="93.599998"
            r="1.197"
            id="circle54"
            fill="#383838"
          />
        </g>
        <g
          id="pin1E"
          transform="matrix(13.014202,0,0,13.021012,53.422485,-1036.6982)">
          <path
            d="m 8.526,86.4 c 0,-1.321 1.072,-2.394 2.394,-2.394 1.322,0 2.394,1.072 2.394,2.394"
            id="path57"
            fill="#bfbfbf"
          />
          <path
            d="m 13.313,86.4 c 0,1.321 -1.072,2.394 -2.394,2.394 -1.322,0 -2.393,-1.073 -2.393,-2.394 v 0"
            id="path59"
            fill="#e6e6e6"
          />
          <circle
            cx="10.92"
            cy="86.400002"
            r="1.196"
            id="circle61"
            fill="#383838"
          />
        </g>
        <g
          id="pin2A"
          transform="matrix(13.014202,0,0,13.021012,59.720266,-1011.7163)">
          <path
            d="m 15.727,115.2 c 0,-1.322 1.071,-2.394 2.394,-2.394 1.322,0 2.394,1.071 2.394,2.394"
            id="path99"
            fill="#bfbfbf"
          />
          <path
            d="m 20.514,115.2 c 0,1.322 -1.07,2.395 -2.393,2.395 -1.322,0.002 -2.394,-1.07 -2.395,-2.392 0,-0.001 0,-0.002 0,-0.003"
            id="path101"
            fill="#e6e6e6"
          />
          <circle
            cx="18.120001"
            cy="115.2"
            r="1.197"
            id="circle103"
            fill="#383838"
          />
        </g>
        <g
          id="pin2B"
          transform="matrix(13.014202,0,0,13.021012,59.720266,-1017.965)">
          <path
            d="m 15.727,108 c 0,-1.322 1.071,-2.395 2.394,-2.395 1.322,0 2.394,1.072 2.394,2.395"
            id="path106"
            fill="#bfbfbf"
          />
          <path
            d="m 20.514,108 c 0,1.321 -1.07,2.394 -2.393,2.395 -1.322,0 -2.394,-1.07 -2.395,-2.393 0,-10e-4 0,-0.002 0,-0.002"
            id="path108"
            fill="#e6e6e6"
          />
          <circle
            cx="18.120001"
            cy="108"
            r="1.197"
            id="circle110"
            fill="#383838"
          />
        </g>
        <g
          id="pin2C"
          transform="matrix(13.014202,0,0,13.021012,59.720266,-1024.2137)">
          <path
            d="m 15.727,100.799 c 0,-1.321 1.071,-2.393 2.394,-2.393 1.322,0 2.394,1.071 2.394,2.393"
            id="path113"
            fill="#bfbfbf"
          />
          <path
            d="m 20.514,100.799 c 0,1.322 -1.07,2.395 -2.393,2.396 -1.322,0.001 -2.394,-1.07 -2.395,-2.392 0,-0.002 0,-0.002 0,-0.004"
            id="path115"
            fill="#e6e6e6"
          />
          <circle
            cx="18.120001"
            cy="100.8"
            r="1.197"
            id="circle117"
            fill="#383838"
          />
        </g>
        <g
          id="pin2D"
          transform="matrix(13.014202,0,0,13.021012,59.720266,-1030.4625)">
          <path
            d="m 15.727,93.6 c 0,-1.322 1.071,-2.395 2.394,-2.395 1.322,0 2.394,1.072 2.394,2.395"
            id="path120"
            fill="#bfbfbf"
          />
          <path
            d="m 20.514,93.6 c 0,1.322 -1.07,2.395 -2.393,2.395 -1.322,10e-4 -2.394,-1.07 -2.395,-2.393 V 93.6"
            id="path122"
            fill="#e6e6e6"
          />
          <circle
            cx="18.120001"
            cy="93.599998"
            r="1.197"
            id="circle124"
            fill="#383838"
          />
        </g>
        <g
          id="pin2E"
          transform="matrix(13.014202,0,0,13.021012,59.720266,-1036.7242)">
          <path
            d="m 15.727,86.4 c 0,-1.321 1.071,-2.394 2.394,-2.394 1.322,0 2.394,1.072 2.394,2.394"
            id="path127"
            fill="#bfbfbf"
          />
          <path
            d="m 20.514,86.4 c 0,1.321 -1.07,2.394 -2.393,2.396 -1.322,0 -2.394,-1.07 -2.395,-2.393 0,-0.001 0,-0.002 0,-0.003"
            id="path129"
            fill="#e6e6e6"
          />
          <circle
            cx="18.120001"
            cy="86.400002"
            r="1.196"
            id="circle131"
            fill="#383838"
          />
        </g>
        <g
          id="pin3A"
          transform="matrix(13.014202,0,0,13.021012,66.031061,-1011.7032)">
          <path
            d="m 22.926,115.2 c 0,-1.322 1.072,-2.394 2.394,-2.394 1.322,0 2.394,1.071 2.394,2.394"
            id="path169"
            fill="#bfbfbf"
          />
          <path
            d="m 27.713,115.2 c 0,1.322 -1.072,2.394 -2.394,2.394 -1.322,0 -2.394,-1.071 -2.394,-2.394 v 0"
            id="path171"
            fill="#e6e6e6"
          />
          <circle
            cx="25.32"
            cy="115.2"
            r="1.197"
            id="circle173"
            fill="#383838"
          />
        </g>
        <g
          id="pin3B"
          transform="matrix(13.014202,0,0,13.021012,66.031061,-1017.9389)">
          <path
            d="m 22.926,108 c 0,-1.322 1.072,-2.395 2.394,-2.395 1.322,0 2.394,1.072 2.394,2.395"
            id="path176"
            fill="#bfbfbf"
          />
          <path
            d="m 27.713,108 c 0,1.321 -1.072,2.393 -2.394,2.393 -1.322,0 -2.394,-1.071 -2.394,-2.393"
            id="path178"
            fill="#e6e6e6"
          />
          <circle
            cx="25.32"
            cy="108"
            r="1.197"
            id="circle180"
            fill="#383838"
          />
        </g>
        <g
          id="pin3C"
          transform="matrix(13.014202,0,0,13.021012,66.031061,-1024.2007)">
          <path
            d="m 22.926,100.799 c 0,-1.321 1.072,-2.393 2.394,-2.393 1.322,0 2.394,1.071 2.394,2.393"
            id="path183"
            fill="#bfbfbf"
          />
          <path
            d="m 27.713,100.799 c 0,1.322 -1.072,2.395 -2.394,2.395 -1.322,0 -2.394,-1.072 -2.394,-2.395 v 0"
            id="path185"
            fill="#e6e6e6"
          />
          <circle
            cx="25.32"
            cy="100.8"
            r="1.197"
            id="circle187"
            fill="#383838"
          />
        </g>
        <g
          id="pin3D"
          transform="matrix(13.014202,0,0,13.021012,66.031061,-1030.4495)">
          <path
            d="m 22.926,93.6 c 0,-1.322 1.072,-2.395 2.394,-2.395 1.322,0 2.394,1.072 2.394,2.395"
            id="path190"
            fill="#bfbfbf"
          />
          <path
            d="m 27.713,93.6 c 0,1.322 -1.072,2.394 -2.394,2.394 -1.322,0 -2.394,-1.071 -2.394,-2.394 v 0"
            id="path192"
            fill="#e6e6e6"
          />
          <circle
            cx="25.32"
            cy="93.599998"
            r="1.197"
            id="circle194"
            fill="#383838"
          />
        </g>
        <g
          id="pin3E"
          transform="matrix(13.014202,0,0,13.021012,66.031061,-1036.6982)">
          <path
            d="m 22.926,86.4 c 0,-1.321 1.072,-2.394 2.394,-2.394 1.322,0 2.394,1.072 2.394,2.394"
            id="path197"
            fill="#bfbfbf"
          />
          <path
            d="m 27.713,86.4 c 0,1.321 -1.072,2.394 -2.394,2.394 -1.322,0 -2.394,-1.072 -2.394,-2.394"
            id="path199"
            fill="#e6e6e6"
          />
          <circle
            cx="25.32"
            cy="86.400002"
            r="1.196"
            id="circle201"
            fill="#383838"
          />
        </g>
        <g
          id="pin4A"
          transform="matrix(13.014202,0,0,13.021012,72.315828,-1011.7032)">
          <path
            d="m 30.126,115.2 c 0,-1.322 1.071,-2.394 2.394,-2.394 1.322,0 2.394,1.071 2.394,2.394"
            id="path239"
            fill="#bfbfbf"
          />
          <path
            d="m 34.914,115.2 c 0,1.322 -1.072,2.394 -2.394,2.394 -1.322,0 -2.394,-1.071 -2.394,-2.394 v 0"
            id="path241"
            fill="#e6e6e6"
          />
          <circle
            cx="32.52"
            cy="115.2"
            r="1.197"
            id="circle243"
            fill="#383838"
          />
        </g>
        <g
          id="pin4B"
          transform="matrix(13.014202,0,0,13.021012,72.315828,-1017.9389)">
          <path
            d="m 30.126,108 c 0,-1.322 1.071,-2.395 2.394,-2.395 1.322,0 2.394,1.072 2.394,2.395"
            id="path246"
            fill="#bfbfbf"
          />
          <path
            d="m 34.914,108 c 0,1.321 -1.072,2.393 -2.394,2.393 -1.322,0 -2.394,-1.071 -2.394,-2.393"
            id="path248"
            fill="#e6e6e6"
          />
          <circle
            cx="32.52"
            cy="108"
            r="1.197"
            id="circle250"
            fill="#383838"
          />
        </g>
        <g
          id="pin4C"
          transform="matrix(13.014202,0,0,13.021012,72.315828,-1024.2007)">
          <path
            d="m 30.126,100.799 c 0,-1.321 1.071,-2.393 2.394,-2.393 1.322,0 2.394,1.071 2.394,2.393"
            id="path253"
            fill="#bfbfbf"
          />
          <path
            d="m 34.914,100.799 c 0,1.322 -1.072,2.395 -2.394,2.395 -1.322,0 -2.394,-1.072 -2.394,-2.395 v 0"
            id="path255"
            fill="#e6e6e6"
          />
          <circle
            cx="32.52"
            cy="100.8"
            r="1.197"
            id="circle257"
            fill="#383838"
          />
        </g>
        <g
          id="pin4D"
          transform="matrix(13.014202,0,0,13.021012,72.315828,-1030.4495)">
          <path
            d="m 30.126,93.6 c 0,-1.322 1.071,-2.395 2.394,-2.395 1.322,0 2.394,1.072 2.394,2.395"
            id="path260"
            fill="#bfbfbf"
          />
          <path
            d="m 34.914,93.6 c 0,1.322 -1.072,2.394 -2.394,2.394 -1.322,0 -2.394,-1.071 -2.394,-2.394 v 0"
            id="path262"
            fill="#e6e6e6"
          />
          <circle
            cx="32.52"
            cy="93.599998"
            r="1.197"
            id="circle264"
            fill="#383838"
          />
        </g>
        <g
          id="pin4E"
          transform="matrix(13.014202,0,0,13.021012,72.315828,-1036.6982)">
          <path
            d="m 30.126,86.4 c 0,-1.321 1.071,-2.394 2.394,-2.394 1.322,0 2.394,1.072 2.394,2.394"
            id="path267"
            fill="#bfbfbf"
          />
          <path
            d="m 34.914,86.4 c 0,1.321 -1.072,2.394 -2.394,2.394 -1.322,0 -2.394,-1.072 -2.394,-2.394"
            id="path269"
            fill="#e6e6e6"
          />
          <circle
            cx="32.52"
            cy="86.400002"
            r="1.196"
            id="circle271"
            fill="#383838"
          />
        </g>
        <g
          id="pin5A"
          transform="matrix(13.014202,0,0,13.021012,78.626623,-1011.7032)">
          <path
            d="m 37.326,115.2 c 0,-1.322 1.072,-2.394 2.394,-2.394 1.322,0 2.394,1.071 2.394,2.394"
            id="path309"
            fill="#bfbfbf"
          />
          <path
            d="m 42.113,115.2 c 0,1.322 -1.071,2.394 -2.394,2.394 -1.322,0 -2.394,-1.071 -2.394,-2.394 v 0"
            id="path311"
            fill="#e6e6e6"
          />
          <circle
            cx="39.720001"
            cy="115.2"
            r="1.197"
            id="circle313"
            fill="#383838"
          />
        </g>
        <g
          id="pin5B"
          transform="matrix(13.014202,0,0,13.021012,78.626623,-1017.9389)">
          <path
            d="m 37.326,108 c 0,-1.322 1.072,-2.395 2.394,-2.395 1.322,0 2.394,1.072 2.394,2.395"
            id="path316"
            fill="#bfbfbf"
          />
          <path
            d="m 42.113,108 c 0,1.321 -1.071,2.393 -2.394,2.393 -1.322,0 -2.394,-1.071 -2.394,-2.393"
            id="path318"
            fill="#e6e6e6"
          />
          <circle
            cx="39.720001"
            cy="108"
            r="1.197"
            id="circle320"
            fill="#383838"
          />
        </g>
        <g
          id="pin5C"
          transform="matrix(13.014202,0,0,13.021012,78.626623,-1024.2007)">
          <path
            d="m 37.326,100.799 c 0,-1.321 1.072,-2.393 2.394,-2.393 1.322,0 2.394,1.071 2.394,2.393"
            id="path323"
            fill="#bfbfbf"
          />
          <path
            d="m 42.113,100.799 c 0,1.322 -1.071,2.395 -2.394,2.395 -1.322,0 -2.394,-1.072 -2.394,-2.395 v 0"
            id="path325"
            fill="#e6e6e6"
          />
          <circle
            cx="39.720001"
            cy="100.8"
            r="1.197"
            id="circle327"
            fill="#383838"
          />
        </g>
        <g
          id="pin5D"
          transform="matrix(13.014202,0,0,13.021012,78.626623,-1030.4495)">
          <path
            d="m 37.326,93.6 c 0,-1.322 1.072,-2.395 2.394,-2.395 1.322,0 2.394,1.072 2.394,2.395"
            id="path330"
            fill="#bfbfbf"
          />
          <path
            d="m 42.113,93.6 c 0,1.322 -1.071,2.394 -2.394,2.394 -1.322,0 -2.394,-1.071 -2.394,-2.394 v 0"
            id="path332"
            fill="#e6e6e6"
          />
          <circle
            cx="39.720001"
            cy="93.599998"
            r="1.197"
            id="circle334"
            fill="#383838"
          />
        </g>
        <g
          id="pin5E"
          transform="matrix(13.014202,0,0,13.021012,78.626623,-1036.6982)">
          <path
            d="m 37.326,86.4 c 0,-1.321 1.072,-2.394 2.394,-2.394 1.322,0 2.394,1.072 2.394,2.394"
            id="path337"
            fill="#bfbfbf"
          />
          <path
            d="m 42.113,86.4 c 0,1.321 -1.071,2.394 -2.394,2.394 -1.322,0 -2.394,-1.072 -2.394,-2.394"
            id="path339"
            fill="#e6e6e6"
          />
          <circle
            cx="39.720001"
            cy="86.400002"
            r="1.196"
            id="circle341"
            fill="#383838"
          />
        </g>
      </g>
    </g>
  </g>
</svg>
