<?xml version='1.0' encoding='UTF-8' standalone='no'?>
<svg
  xmlns:dc="http://purl.org/dc/elements/1.1/"
  xmlns:cc="http://creativecommons.org/ns#"
  xmlns:rdf="http://www.w3.org/1999/02/22-rdf-syntax-ns#"
  xmlns:svg="http://www.w3.org/2000/svg"
  xmlns="http://www.w3.org/2000/svg"
  gorn="0"
  xml:space="preserve"
  viewBox="0 0 385.57666 611.58905"
  y="0px"
  x="0px"
  width="0.38557655in"
  id="svg2"
  height="0.6115889in"
  version="1.1">
  <metadata
    id="metadata28">
    <rdf:RDF>
      <cc:Work
        rdf:about="">
        <dc:format>image/svg+xml</dc:format>
        <dc:type
          rdf:resource="http://purl.org/dc/dcmitype/StillImage"
        />
        <dc:title/>
      </cc:Work>
    </rdf:RDF>
  </metadata>
  <defs
    id="defs26">
  </defs>
  <desc
    id="desc2">
    <referenceFile>prefix0000_48522eb1b22b3bd35bb574232acf6d87_1_breadboard.svg</referenceFile>
  </desc>
  <g
    id="breadboard">
    <ellipse
      transform="matrix(0.93814607,0.34623972,-0.22759146,0.97375671,0,0)"
      ry="21.18848"
      rx="34.355122"
      cy="-63.214165"
      cx="246.5661"
      id="path3758"
      fill="#b3b3b3"
      stroke-width="10.45686245"
    />
    <rect
      transform="matrix(0.17981157,-0.98370107,0.26837518,0.96331447,0,0)"
      height="14.450569"
      id="rect3748"
      width="84.999107"
      x="430.7323"
      y="918.49756"
      gorn="0.0.12"
      fill="#666666"
      stroke-width="13.39706898"
    />
    <rect
      gorn="0.0.3"
      y="537.20984"
      x="111.34647"
      width="25.199858"
      id="connector0pin"
      height="74.37925"
      fill="#8c8c8c"
      stroke-width="9.99992085"
    />
    <rect
      gorn="0.0.0"
      y="595.05927"
      x="111.34647"
      width="25.199858"
      id="connector0terminal"
      height="16.469833"
      fill="#8c8c8c"
      stroke-width="9.99992085"
    />
    <rect
      gorn="0.0.4"
      y="537.20984"
      x="211.33589"
      width="25.209856"
      id="connector1pin"
      height="74.37925"
      fill="#8c8c8c"
      stroke-width="9.99992085"
    />
    <rect
      gorn="0.0.1"
      y="595.05927"
      x="211.33589"
      width="25.209856"
      id="connector1terminal"
      height="16.469833"
      fill="#8c8c8c"
      stroke-width="9.99992085"
    />
    <rect
      gorn="0.0.6"
      y="403.0611"
      x="111.22646"
      width="25.199858"
      id="rect4"
      height="207.8479"
      fill="#8c8c8c"
      stroke-width="9.99992085"
    />
    <rect
      gorn="0.0.7"
      y="403.0611"
      x="211.2159"
      width="25.209856"
      id="rect6"
      height="207.8479"
      fill="#8c8c8c"
      stroke-width="9.99992085"
    />
    <polygon
      transform="matrix(9.999943,0,0,9.9998993,51.016806,244.01272)"
      gorn="0.0.9"
      points="3.781,13.87 10.781,13.87 10.781,26.049 8.541,27.049 6.022,27.049 3.781,26.049 "
      id="polygon21"
      fill="#8c8c8c"
    />
    <polygon
      transform="matrix(9.999943,0,0,9.9998993,51.016806,244.01272)"
      gorn="0.0.10"
      points="13.781,13.87 20.782,13.87 20.782,26.049 18.539,27.049 16.021,27.049 13.781,26.049 "
      id="polygon23"
      fill="#8c8c8c"
    />
    <rect
      gorn="0.0.13"
      y="326.5119"
      x="38.836872"
      width="288.74142"
      id="rect49"
      height="46.489532"
      stroke-width="8.83411884"
    />
    <rect
      transform="matrix(0.99982676,0.01861338,-0.01002468,0.99994975,0,0)"
      gorn="0.0.17"
      y="341.49774"
      x="326.79126"
      width="12.130604"
      id="rect3750"
      height="82.85936"
      fill="#666666"
      stroke-width="10.0001049"
    />
    <rect
      gorn="0.0.12"
      y="290.4722"
      x="38.836872"
      width="290.33429"
      id="rect27"
      height="184.71814"
      fill="#1a1a1a"
      stroke-width="8.85845184"
    />
    <rect
      gorn="0.0.14"
      y="290.4722"
      x="38.836872"
      width="306.24359"
      id="rect51"
      height="56.029545"
      fill="#808080"
      stroke-width="8.88271904"
    />
    <rect
      height="59.335644"
      id="rect3754"
      width="12.215713"
      x="411.33847"
      y="210.30655"
      gorn="0.0.17"
      transform="matrix(0.97678559,0.2142193,-0.27053145,0.96271114,0,0)"
      fill="#666666"
      stroke-width="10.00835228"
    />
    <rect
      transform="matrix(0.940183,0.34066981,-0.13931607,0.99024797,0,0)"
      gorn="0.0.17"
      y="-59.412582"
      x="216.99352"
      width="69.139053"
      id="rect51_1_"
      height="303.66455"
      fill="#b3b3b3"
      stroke-width="10.10931492"
    />
    <rect
      height="113.1413"
      id="rect3725"
      width="181.32712"
      x="88.825417"
      y="353.68179"
      gorn="0.0.16"
      fill="#e6e6e6"
      stroke-width="9.99992085"
    />
    <rect
      transform="matrix(0.68529213,0.72826828,-0.4870767,0.8733592,0,0)"
      height="67.914139"
      id="rect3727"
      width="56.671997"
      x="155.96477"
      y="151.52036"
      gorn="0.0.14"
      fill="#ffffff"
      stroke-width="9.09803009"
    />
    <rect
      height="85.116722"
      id="rect3752"
      width="15.082053"
      x="557.23132"
      y="-159.27419"
      gorn="0.0.17"
      transform="matrix(0.58427485,0.81155585,-0.11830089,0.99297779,0,0)"
      fill="#666666"
      stroke-width="12.1608963"
    />
    <rect
      height="30.459694"
      id="rect3731"
      width="216.4425"
      x="106.85388"
      y="242.55396"
      gorn="0.0.17"
      fill="#b3b3b3"
      stroke-width="9.99992085"
    />
    <rect
      gorn="0.0.17"
      y="212.09425"
      x="165.42343"
      width="100.42975"
      id="rect3733"
      height="30.459694"
      fill="#808080"
      stroke-width="9.99992085"
    />
    <rect
      transform="matrix(0.99997064,0.00766233,-0.01258203,0.99992084,0,0)"
      gorn="0.0.15"
      y="294.23032"
      x="102.94068"
      width="199.41615"
      id="rect49_1_"
      height="46.490971"
      stroke-width="9.99997997"
    />
    <rect
      height="49.60743"
      id="rect3735"
      width="135.34622"
      x="141.40044"
      y="272.12003"
      gorn="0.0.17"
      fill="#808080"
      stroke-width="9.99992085"
    />
    <rect
      transform="matrix(0.86005096,0.51020814,-0.50482615,0.86322104,0,0)"
      height="44.234421"
      id="rect3737"
      width="30.721817"
      x="226.19617"
      y="201.58087"
      gorn="0.0.14"
      fill="#808080"
      stroke-width="8.88280487"
    />
    <rect
      gorn="0.0.14"
      y="345.76199"
      x="278.93668"
      width="18.759203"
      id="rect3739"
      height="21.655785"
      transform="matrix(0.99984646,-0.01752318,-0.4990667,0.86656357,0,0)"
      fill="#808080"
      stroke-width="9.59139729"
    />
    <rect
      transform="matrix(0.99939999,0.03463614,-0.32391466,0.9460863,0,0)"
      height="52.776318"
      id="rect3741"
      width="18.868267"
      x="394.10062"
      y="296.12759"
      gorn="0.0.14"
      fill="#808080"
      stroke-width="9.08132839"
    />
    <rect
      transform="matrix(0.77565842,0.63115293,0.01355829,0.99990808,0,0)"
      gorn="0.0.17"
      y="61.292007"
      x="427.32648"
      width="6.5926495"
      id="rect3756"
      height="69.661598"
      fill="#666666"
      stroke-width="11.41801167"
    />
    <rect
      gorn="0.0.14"
      y="-62.905388"
      x="491.93939"
      width="46.013153"
      id="rect3729"
      height="100.09127"
      transform="matrix(0.70505996,0.7091477,-0.09995731,0.99499173,0,0)"
      fill="#ffffff"
      stroke-width="10.10697079"
    />
  </g>
</svg>
