<?xml version='1.0' encoding='UTF-8' standalone='no'?>
<svg
  xmlns="http://www.w3.org/2000/svg"
  xmlns:svg="http://www.w3.org/2000/svg"
  xmlns:rdf="http://www.w3.org/1999/02/22-rdf-syntax-ns#"
  xmlns:cc="http://creativecommons.org/ns#"
  xmlns:dc="http://purl.org/dc/elements/1.1/"
  id="svg2"
  y="0in"
  version="1.2"
  height="0.51968503in"
  width="1.0551181in"
  x="0in"
  viewBox="0 0 1055.118 519.685"
  xml:space="preserve">
  <metadata
    id="metadata24">
    <rdf:RDF>
      <cc:Work
        rdf:about="">
        <dc:format>image/svg+xml</dc:format>
        <dc:type
          rdf:resource="http://purl.org/dc/dcmitype/StillImage"
        />
      </cc:Work>
    </rdf:RDF>
  </metadata>
  <defs
    id="defs22"
  />
  <desc
    id="desc4">
    <referenceFile>X9C103S-module_1_breadboard.svg</referenceFile>
  </desc>
  <g
    id="breadboard">
    <rect
      y="0"
      height="519.685"
      width="1055.118"
      x="0"
      gorn="0.1.0"
      id="upper"
      stroke-width="0"
      fill="#008000"
    />
    <line
      y1="188.92395"
      y2="188.92395"
      x2="963.32703"
      x1="905.18811"
      id="line24"
      stroke-linecap="butt"
      stroke-width="10"
      stroke="#ffffff"
      fill="none"
    />
    <rect
      height="37.236099"
      width="110.639"
      x="-580.35815"
      id="rect3806"
      y="-73.014282"
      fill="#4d4d4d"
      transform="scale(-1)"
    />
    <rect
      height="0.63888901"
      width="110.639"
      enable-background="new    "
      x="-580.35815"
      id="rect3808"
      y="-73.014282"
      fill="#ffffff"
      opacity="0.2"
      transform="scale(-1)"
    />
    <rect
      height="11.0972"
      width="110.639"
      y="-44.819942"
      x="-580.35815"
      id="rect3810"
      fill="#333333"
      transform="scale(-1)"
    />
    <rect
      height="0.444444"
      width="110.639"
      y="-34.09753"
      enable-background="new    "
      x="-580.35815"
      id="rect3812"
      opacity="0.2"
      transform="scale(-1)"
    />
    <path
      d="m 485.78866,73.01427 v 0 0 h 1.2917 v 0 c 1.1111,-3.4861 1.875,-11.0556 1.875,-14.9306 0,-4.0416 -0.6667,-9.625 -1.875,-13.2639 v 0 0 l -16.9861,1e-4 v 28.1944 z"
      id="path3814"
      fill="#dcdcdc"
    />
    <path
      d="m 563.06646,71.56987 v 1.4444 h 16.9723 v -28.1944 h -16.9861 c -1.2223,3.6527 -2.6806,9.1527 -2.6806,13.25 0,4.8055 1.0416,9.3194 2.6944,13.5 z"
      id="path3816"
      fill="#dcdcdc"
    />
    <path
      d="m 469.99726,43.34757 h 16.9859 l 0.097,1.4723 h -16.9861 z"
      id="path3818"
      fill="#999999"
    />
    <path
      d="m 579.95536,43.31987 h -16.9861 l 0.097,1.5 h 16.9723 l -0.083,-1.5 z"
      id="path3820"
      fill="#999999"
    />
    <rect
      height="0.63888901"
      width="16.986099"
      y="-34.29211"
      enable-background="new    "
      x="-580.0387"
      id="rect3822"
      opacity="0.15"
      transform="scale(-1)"
    />
    <rect
      height="0.63888901"
      width="16.986099"
      enable-background="new    "
      x="-580.0387"
      id="rect3824"
      y="-73.014282"
      fill="#ffffff"
      opacity="0.5"
      transform="scale(-1)"
    />
    <rect
      height="0.63888901"
      width="17"
      y="-34.29211"
      enable-background="new    "
      x="-487.06641"
      id="rect3826"
      opacity="0.15"
      transform="scale(-1)"
    />
    <rect
      height="0.63888901"
      width="17"
      enable-background="new    "
      x="-487.06641"
      id="rect3828"
      y="-73.014282"
      fill="#ffffff"
      opacity="0.5"
      transform="scale(-1)"
    />
    <line
      x1="569.7749"
      y2="33.653194"
      y1="33.653194"
      x2="569.7749"
      id="line3830"
      fill="none"
    />
    <rect
      height="9.6111097"
      width="1.63889"
      y="-43.34753"
      x="-471.37231"
      id="rect3832"
      fill="#999999"
      transform="scale(-1)"
    />
    <rect
      height="9.6111097"
      width="1.6527801"
      y="-43.34753"
      x="-580.0387"
      id="rect3834"
      fill="#999999"
      transform="scale(-1)"
    />
    <circle
      id="3pin_ra_header"
      cx="79.861115"
      cy="91.874512"
      r="54.999996"
      fill-opacity="1"
      fill="#ffffff"
    />
    <text
      fill="#ffffff"
      font-family="OCRA"
      x="974.5069"
      y="276.97974"
      font-size="48.611"
      id="text3683">VW</text>
    <text
      fill="#ffffff"
      font-family="OCRA"
      id="text3685"
      font-size="48.611"
      y="207.78784"
      x="974.79474">VL</text>
    <text
      fill="#ffffff"
      font-family="OCRA"
      id="text3687"
      font-size="48.6644"
      y="342.96661"
      x="-291.62393"
      transform="matrix(0,-0.99890181,1.0010994,0,0,0)"
      stroke-width="1">NC</text>
    <text
      fill="#ffffff"
      font-family="OCRA"
      id="text1326"
      font-size="48.6594"
      y="342.6507"
      x="-411.42584"
      transform="matrix(0,-0.9990046,1.0009964,0,0,0)"
      stroke-width="0.999997">U/D</text>
    <text
      fill="#ffffff"
      font-family="OCRA"
      id="text1328"
      font-size="48.6644"
      y="342.62311"
      x="-520.95355"
      transform="matrix(0,-0.99890131,1.0010999,0,0,0)"
      stroke-width="1">GND</text>
    <rect
      height="37.236099"
      width="110.639"
      x="-574.82281"
      id="rect1330"
      y="-397.65881"
      fill="#4d4d4d"
      transform="scale(-1)"
    />
    <rect
      height="0.63888901"
      width="110.639"
      enable-background="new    "
      x="-574.82281"
      id="rect1332"
      y="-397.65881"
      fill="#ffffff"
      opacity="0.2"
      transform="scale(-1)"
    />
    <rect
      height="11.0972"
      width="110.639"
      y="-369.46448"
      x="-574.82281"
      id="rect1334"
      fill="#333333"
      transform="scale(-1)"
    />
    <rect
      height="0.444444"
      width="110.639"
      y="-358.74219"
      enable-background="new    "
      x="-574.82281"
      id="rect1336"
      opacity="0.2"
      transform="scale(-1)"
    />
    <path
      d="m 480.25331,397.65887 v 0 0 h 1.2917 v 0 c 1.1111,-3.4861 1.875,-11.0556 1.875,-14.9306 0,-4.0417 -0.6667,-9.625 -1.875,-13.2639 v 0 0 l -16.9861,1e-4 v 28.1944 z"
      id="path1338"
      fill="#dcdcdc"
    />
    <path
      d="m 557.53111,396.21437 v 1.4445 h 16.9723 v -28.1944 h -16.9861 c -1.2223,3.6527 -2.6806,9.1527 -2.6806,13.25 0,4.8055 1.0416,9.3194 2.6944,13.4999 z"
      id="path1340"
      fill="#dcdcdc"
    />
    <path
      d="m 464.46191,367.99217 h 16.9859 l 0.097,1.4723 h -16.9861 z"
      id="path1342"
      fill="#999999"
    />
    <path
      d="m 574.42001,367.96447 h -16.9861 l 0.097,1.5 h 16.9723 l -0.083,-1.5 z"
      id="path1344"
      fill="#999999"
    />
    <rect
      height="0.63888901"
      width="16.986099"
      y="-358.93665"
      enable-background="new    "
      x="-574.50336"
      id="rect1346"
      opacity="0.15"
      transform="scale(-1)"
    />
    <rect
      height="0.63888901"
      width="16.986099"
      enable-background="new    "
      x="-574.50336"
      id="rect1348"
      y="-397.65881"
      fill="#ffffff"
      opacity="0.5"
      transform="scale(-1)"
    />
    <rect
      height="0.63888901"
      width="17"
      y="-358.93665"
      enable-background="new    "
      x="-481.53107"
      id="rect1350"
      opacity="0.15"
      transform="scale(-1)"
    />
    <rect
      height="0.63888901"
      width="17"
      enable-background="new    "
      x="-481.53107"
      id="rect1352"
      y="-397.65881"
      fill="#ffffff"
      opacity="0.5"
      transform="scale(-1)"
    />
    <line
      x1="564.23956"
      y2="358.29773"
      y1="358.29773"
      x2="564.23956"
      id="line1354"
      fill="none"
    />
    <rect
      height="9.6111097"
      width="1.63889"
      y="-367.99219"
      x="-465.83698"
      id="rect1356"
      fill="#999999"
      transform="scale(-1)"
    />
    <rect
      height="9.6111097"
      width="1.6527801"
      y="-367.99219"
      x="-574.50336"
      id="rect1358"
      fill="#999999"
      transform="scale(-1)"
    />
    <rect
      height="37.236099"
      width="110.639"
      x="-574.82275"
      id="rect1362"
      y="-492.15125"
      fill="#ececec"
      transform="scale(-1)"
    />
    <rect
      height="0.63888901"
      width="110.639"
      enable-background="new    "
      x="-574.82275"
      id="rect1364"
      y="-492.15125"
      fill="#ffffff"
      opacity="0.2"
      transform="scale(-1)"
    />
    <rect
      height="11.0972"
      width="110.639"
      y="-463.95691"
      x="-574.82275"
      id="rect1366"
      fill="#333333"
      transform="scale(-1)"
    />
    <rect
      height="0.444444"
      width="110.639"
      y="-453.23462"
      enable-background="new    "
      x="-574.82275"
      id="rect1368"
      opacity="0.2"
      transform="scale(-1)"
    />
    <path
      d="m 480.25326,492.15127 v 0 0 h 1.2917 v 0 c 1.1111,-3.4861 1.875,-11.0556 1.875,-14.9306 0,-4.0417 -0.6667,-9.625 -1.875,-13.2639 v 0 0 l -16.9861,10e-5 v 28.1944 z"
      id="path1370"
      fill="#dcdcdc"
    />
    <path
      d="m 557.53106,490.70687 v 1.4444 h 16.9723 v -28.1944 h -16.9861 c -1.2223,3.6527 -2.6806,9.1527 -2.6806,13.25 0,4.8055 1.0416,9.3194 2.6944,13.5 z"
      id="path1372"
      fill="#dcdcdc"
    />
    <path
      d="m 464.46186,462.48457 h 16.9859 l 0.097,1.4723 h -16.9861 z"
      id="path1374"
      fill="#999999"
    />
    <path
      d="m 574.41996,462.45687 h -16.9861 l 0.097,1.5 h 16.9723 l -0.083,-1.5 z"
      id="path1376"
      fill="#999999"
    />
    <rect
      height="0.63888901"
      width="16.986099"
      y="-453.42908"
      enable-background="new    "
      x="-574.5033"
      id="rect1378"
      opacity="0.15"
      transform="scale(-1)"
    />
    <rect
      height="0.63888901"
      width="16.986099"
      enable-background="new    "
      x="-574.5033"
      id="rect1380"
      y="-492.15125"
      fill="#ffffff"
      opacity="0.5"
      transform="scale(-1)"
    />
    <rect
      height="0.63888901"
      width="17"
      y="-453.42908"
      enable-background="new    "
      x="-481.53101"
      id="rect1382"
      opacity="0.15"
      transform="scale(-1)"
    />
    <rect
      height="0.63888901"
      width="17"
      enable-background="new    "
      x="-481.53101"
      id="rect1384"
      y="-492.15125"
      fill="#ffffff"
      opacity="0.5"
      transform="scale(-1)"
    />
    <line
      x1="564.2395"
      y2="452.79016"
      y1="452.79016"
      x2="564.2395"
      id="line1386"
      fill="none"
    />
    <rect
      height="9.6111097"
      width="1.63889"
      y="-462.48462"
      x="-465.83691"
      id="rect1388"
      fill="#999999"
      transform="scale(-1)"
    />
    <rect
      height="9.6111097"
      width="1.6527801"
      y="-462.48462"
      x="-574.5033"
      id="rect1390"
      fill="#999999"
      transform="scale(-1)"
    />
    <circle
      id="circle1394"
      cx="79.842506"
      cy="418.65625"
      r="54.999996"
      fill-opacity="1"
      fill="#ffffff"
    />
    <circle
      id="circle1396"
      cx="973.54327"
      cy="91.884644"
      r="54.999996"
      fill-opacity="1"
      fill="#ffffff"
    />
    <circle
      id="circle1398"
      cx="973.54327"
      cy="418.65625"
      r="54.999996"
      fill-opacity="1"
      fill="#ffffff"
    />
    <text
      fill="#ffffff"
      font-family="OCRA"
      id="text1468"
      font-size="48.6644"
      y="342.96661"
      x="-203.338"
      transform="matrix(0,-0.99890181,1.0010994,0,0,0)"
      stroke-width="1">CS</text>
    <text
      fill="#ffffff"
      font-family="OCRA"
      id="text1470"
      font-size="48.6644"
      y="342.62311"
      x="-112.63608"
      transform="matrix(0,-0.99890131,1.0010999,0,0,0)"
      stroke-width="1">VCC</text>
    <text
      fill="#ffffff"
      font-family="OCRA"
      x="974.5069"
      y="348.30518"
      font-size="48.611"
      id="text1472">VH</text>
    <text
      fill="#ffffff"
      font-family="OCRA"
      x="-395.82971"
      y="735.37952"
      font-size="48.611"
      id="text1474"
      transform="rotate(-90)">VH</text>
    <text
      fill="#ffffff"
      font-family="OCRA"
      x="-296.2356"
      y="735.37952"
      font-size="48.611"
      id="text1476"
      transform="rotate(-90)">VW</text>
    <text
      fill="#ffffff"
      font-family="OCRA"
      x="-196.2356"
      y="735.37952"
      font-size="48.611"
      id="text1478"
      transform="rotate(-90)">VL</text>
    <rect
      id="rect20"
      connectorname="1"
      x="141.7113"
      y="-430.56085"
      width="23.490053"
      height="58.436771"
      transform="rotate(90)"
      fill="#8c8c8c"
      stroke="none"
      stroke-width="0"
      stroke-linecap="round"
    />
    <rect
      id="rect22"
      connectorname="2"
      x="178.95166"
      y="-430.56085"
      width="23.490053"
      height="58.436771"
      transform="rotate(90)"
      fill="#8c8c8c"
      stroke="none"
      stroke-width="0"
      stroke-linecap="round"
    />
    <rect
      id="rect24"
      connectorname="3"
      x="216.19189"
      y="-430.56085"
      width="23.490053"
      height="58.436771"
      transform="rotate(90)"
      fill="#8c8c8c"
      stroke="none"
      stroke-width="0"
      stroke-linecap="round"
    />
    <rect
      id="rect26"
      connectorname="4"
      x="253.43262"
      y="-430.56085"
      width="23.490053"
      height="58.436771"
      transform="rotate(90)"
      fill="#8c8c8c"
      stroke="none"
      stroke-width="0"
      stroke-linecap="round"
    />
    <rect
      id="rect28"
      connectorname="5"
      x="253.43262"
      y="-676.12408"
      width="23.490053"
      height="58.436771"
      transform="rotate(90)"
      fill="#8c8c8c"
      stroke="none"
      stroke-width="0"
      stroke-linecap="round"
    />
    <rect
      id="rect30"
      connectorname="6"
      x="216.19189"
      y="-676.12408"
      width="23.490053"
      height="58.436771"
      transform="rotate(90)"
      fill="#8c8c8c"
      stroke="none"
      stroke-width="0"
      stroke-linecap="round"
    />
    <rect
      id="rect32"
      connectorname="7"
      x="178.95166"
      y="-676.12408"
      width="23.490053"
      height="58.436771"
      transform="rotate(90)"
      fill="#8c8c8c"
      stroke="none"
      stroke-width="0"
      stroke-linecap="round"
    />
    <rect
      id="rect34"
      connectorname="8"
      x="141.7113"
      y="-676.12408"
      width="23.490053"
      height="58.436771"
      transform="rotate(90)"
      fill="#8c8c8c"
      stroke="none"
      stroke-width="0"
      stroke-linecap="round"
    />
    <rect
      id="rect36"
      connectorname="EP"
      x="134.83643"
      y="-598.1601"
      width="148.95755"
      height="148.9561"
      transform="rotate(90)"
      fill="#8c8c8c"
      stroke="none"
      stroke-width="0"
      stroke-linecap="round"
    />
    <rect
      id="rect38"
      x="105.12512"
      y="-622.14789"
      width="195.94708"
      height="196.93222"
      transform="rotate(90)"
      fill="#303030"
      stroke="none"
      stroke-width="0"
    />
    <polygon
      transform="matrix(0,1.4551894,-1.4551894,0,690.39857,105.12517)"
      id="polygon40"
      points="0,46.9016 134.654,46.9016 124.654,56.9016 10,56.9016 "
      fill="#1f1f1f"
      stroke-width="0.343598"
    />
    <polygon
      transform="matrix(0,1.4551894,-1.4551894,0,690.39857,105.12517)"
      id="polygon42"
      points="0,182.232 134.654,182.232 124.654,172.232 10,172.232 "
      fill="#1f1f1f"
      stroke-width="0.343598"
    />
    <polygon
      transform="matrix(0,1.4551894,-1.4551894,0,690.39857,105.12517)"
      id="polygon44"
      points="0,46.9016 0,182.232 10,172.232 10,56.9016 "
      fill="#000000"
      stroke-width="0.343598"
    />
    <polygon
      transform="matrix(0,1.4551894,-1.4551894,0,690.39857,105.12517)"
      id="polygon46"
      points="134.654,46.9016 134.654,182.232 124.654,172.232 124.654,56.9016 "
      fill="#3d3d3d"
      stroke-width="0.343598"
    />
    <circle
      id="circle48"
      cy="-468.87219"
      r="14.551894"
      cx="148.78088"
      transform="rotate(90)"
      fill="#1f1f1f"
      stroke="none"
      stroke-width="0"
    />
    <rect
      id="rect1652"
      width="102.40404"
      height="496.798"
      x="190.44443"
      y="11.792601"
      fill="none"
      stroke="#ffffff"
      stroke-width="9.99998"
    />
    <rect
      id="rect1654"
      width="102.40404"
      height="305.82831"
      x="766.12122"
      y="104.50977"
      fill="none"
      stroke="#ffffff"
      stroke-width="9.99998"
    />
    <line
      y1="334.6012"
      y2="334.6012"
      x2="963.32703"
      x1="905.18811"
      id="line1706"
      stroke-linecap="butt"
      stroke-width="10"
      stroke="#ffffff"
      fill="none"
    />
    <line
      y1="259.7981"
      y2="259.7981"
      x2="975.06061"
      x1="924.8819"
      id="line1708"
      stroke-linecap="butt"
      stroke-width="9.99981"
      stroke="#ffffff"
      fill="none"
    />
    <line
      y1="225.89404"
      y2="225.89404"
      x2="930.77777"
      x1="887.51825"
      id="line1710"
      stroke-linecap="butt"
      stroke-width="9.99977"
      stroke="#ffffff"
      fill="none"
    />
    <line
      y1="296.76648"
      y2="296.76648"
      x2="930.77777"
      x1="887.51825"
      id="line1712"
      stroke-linecap="butt"
      stroke-width="9.99977"
      stroke="#ffffff"
      fill="none"
    />
    <line
      y1="222.25415"
      y2="301.49341"
      x2="893.23389"
      x1="893.23389"
      id="line1714"
      stroke-linecap="butt"
      stroke-width="9.99981"
      stroke="#ffffff"
      fill="none"
    />
    <line
      y1="222.25415"
      y2="301.49341"
      x2="924.84235"
      x1="924.84235"
      id="line1716"
      stroke-linecap="butt"
      stroke-width="9.99981"
      stroke="#ffffff"
      fill="none"
    />
    <line
      y1="183.50671"
      y2="228.84192"
      x2="910.31207"
      x1="910.31207"
      id="line1718"
      stroke-linecap="butt"
      stroke-width="9.99982"
      stroke="#ffffff"
      fill="none"
    />
    <line
      y1="293.73499"
      y2="339.07019"
      x2="910.31207"
      x1="910.31207"
      id="line1720"
      stroke-linecap="butt"
      stroke-width="9.99982"
      stroke="#ffffff"
      fill="none"
    />
    <line
      y1="263.35461"
      y2="242.4032"
      x2="946.26263"
      x1="928.77081"
      id="line1722"
      stroke-linecap="butt"
      stroke-width="9.99979"
      stroke="#ffffff"
      fill="none"
    />
    <line
      y1="277.3877"
      y2="259.896"
      x2="927.04102"
      x1="947.99243"
      id="line1724"
      stroke-linecap="butt"
      stroke-width="9.99979"
      stroke="#ffffff"
      fill="none"
    />
    <circle
      id="connector0pin"
      cx="243.19952"
      cy="59.053585"
      r="29"
      fill="#ffffff"
      stroke="#999999"
      stroke-width="20"
    />
    <circle
      id="connector1pin"
      cx="243.19952"
      cy="159.38855"
      r="29"
      fill="#ffffff"
      stroke="#999999"
      stroke-width="20"
    />
    <circle
      id="connector2pin"
      cx="243.19952"
      cy="259.38855"
      r="29"
      fill="#ffffff"
      stroke="#999999"
      stroke-width="20"
    />
    <circle
      id="connector3pin"
      cx="243.19952"
      cy="359.38855"
      r="29"
      fill="#ffffff"
      stroke="#999999"
      stroke-width="20"
    />
    <circle
      id="connector4pin"
      cx="243.19952"
      cy="459.38855"
      r="29"
      fill="#ffffff"
      stroke="#999999"
      stroke-width="20"
    />
    <circle
      id="connector5pin"
      cx="818.99994"
      cy="359.38855"
      r="29"
      fill="#ffffff"
      stroke="#999999"
      stroke-width="20"
    />
    <circle
      id="connector6pin"
      cx="818.99994"
      cy="259.38855"
      r="29"
      fill="#ffffff"
      stroke="#999999"
      stroke-width="20"
    />
    <circle
      id="connector7pin"
      cx="818.99994"
      cy="159.38855"
      r="29"
      fill="#ffffff"
      stroke="#999999"
      stroke-width="20"
    />
  </g>
</svg>
