<?xml version="1.0" encoding="UTF-8"?>
<svg width="25.4mm" height="5.08mm" version="1.2" viewBox="0 0 25.4 5.08" xmlns="http://www.w3.org/2000/svg">
  <g id="schematic">
    <rect x="2.54" y="0.12" width="20.32" height="4.84" fill="none" stroke="#000000" stroke-width="0.24"/>
    <g transform="translate(0,1.15)" fill="#555555" stroke="none">
      <rect id="connector0pin" x="0" y="0" width="2.54" height="0.24"/>
      <rect id="connector1pin" x="0" y="2.54" width="2.54" height="0.24"/>
      <rect id="connector2pin" x="22.86" y="0" width="2.54" height="0.24"/>
      <rect id="connector3pin" x="22.86" y="2.54" width="2.54" height="0.24"/>
    </g>
    <g font-family="DroidSans">
      <g fill="#555555" font-size="1.2347" transform="translate(0,1)">
        <text x="1.0986891" y="0">1</text>
        <text x="1.0618253" y="2.54">2</text>
        <text x="23.893238" y="0">3</text>
        <text x="23.8885" y="2.54">4</text>
      </g>
      <g fill="#555555" font-size="1.2347" transform="translate(2.54,1.7)">
        <text x="0.4" y="0" text-anchor="start">VIN+</text>
        <text x="0.4" y="2.54" text-anchor="start">GND-</text>
        <text x="19.92" y="0" text-anchor="end">VOUT+</text>
        <text x="19.92" y="2.54" text-anchor="end">GND-</text>
      </g>
      <g fill="#000000" font-size="1.5" text-anchor="middle" transform="translate(12.7,2.3)">
        <text x="0" y="0">AMS1117</text>
        <text x="0" y="1.5">5V regulator</text>
      </g>
    </g>
    <g transform="translate(0,1.15)" stroke="none" fill="none">
      <rect id="connector0terminal" x="0" y="0" width="0.24" height="0.24"/>
      <rect id="connector1terminal" x="0" y="2.54" width="0.24" height="0.24"/>
      <rect id="connector2terminal" x="25.16" y="0" width="0.24" height="0.24"/>
      <rect id="connector3terminal" x="25.16" y="2.54" width="0.24" height="0.24"/>
    </g>
  </g>
</svg>
