<svg xmlns="http://www.w3.org/2000/svg" height="11.9944mm" viewBox="0 0 42.2739 34"  width="14.9133mm">
    <desc >
        <referenceFile >DUAL_MOS_PWM_CTRL_BRDv5v1_schematic.svg</referenceFile>
    </desc>
    <g  id="schematic" gorn="0.1">
        <g  id="background" gorn="0.1.0">
            <rect x="6.0404" fill=" #fff" height="13.964" stroke=" #000" style="stroke-miterlimit: 10;"  stroke-width=" 0.5px" y="11.0954" width="28.7072"/>
        </g>
        <g  id="breadboard-2" data-name="breadboard" gorn="0.1.1">
            <line y1="10.9362" fill=" none" x2="14.7279" stroke=" #000" style="stroke-miterlimit: 10;" x1="14.7279"  stroke-width=" 0.5px" id="connector7pin" y2="6.3364" gorn="0.1.1.0"/>
            <line y1="10.9362" fill=" none" x2="8.3894" stroke=" #000" style="stroke-miterlimit: 10;" x1="8.3894"  stroke-width=" 0.5px" id="connector5pin" y2="6.3364" gorn="0.1.1.1"/>
            <line y1="21.6965" fill=" none" x2="39.3474" stroke=" #000" style="stroke-miterlimit: 10;" x1="34.7476"  stroke-width=" 0.5px" id="connector9pin" y2="21.6965" gorn="0.1.1.2"/>
            <line y1="15.0462" fill=" none" x2="39.3474" stroke=" #000" style="stroke-miterlimit: 10;" x1="34.7476"  stroke-width=" 0.5px" id="connector8pin" y2="15.0462" gorn="0.1.1.3"/>
            <line y1="25.0593" fill=" none" x2="8.3567" stroke=" #000" style="stroke-miterlimit: 10;" x1="8.3567"  stroke-width=" 0.5px" id="connector11pin" y2="29.6591" gorn="0.1.1.4"/>
            <line y1="25.0593" fill=" none" x2="14.8038" stroke=" #000" style="stroke-miterlimit: 10;" x1="14.8038"  stroke-width=" 0.5px" id="connector10pin" y2="29.6591" gorn="0.1.1.5"/>
            <g >
                <path  d="M18.7114,6.49c.0036-.0016.0637-.0016.18-.0016L19.08,6.49a.2649.2649,0,0,1,.1982.14c.0037.0073.0377.0813.1013.2229a2.8884,2.8884,0,0,1,.1172.28l.0037.01a.5354.5354,0,0,1,0,.214,1.4468,1.4468,0,0,1-.0854.21c-.0072.0177-.0188.045-.0355.08-.0636.1416-.0984.2164-.1034.2244a.2831.2831,0,0,1-.0572.074.2477.2477,0,0,1-.1353.0636l-.1961.0024H18.71l-.0073-.004a.1018.1018,0,0,1,0-.19c.0044-.0008.0239-.0024.0572-.004h.0521V6.6854H18.76a.1823.1823,0,0,1-.0572-.004.0868.0868,0,0,1-.0579-.0531.0973.0973,0,0,1-.0072-.0539.1389.1389,0,0,1,.0072-.0289A.0836.0836,0,0,1,18.7114,6.49Zm.3618.1979a.2028.2028,0,0,0-.0449-.0025h-.0405V7.814h.0405a.1237.1237,0,0,0,.0615-.0105.0669.0669,0,0,0,.0311-.0265q.0054-.0084.1541-.3354.0423-.0954.0478-.111a.4889.4889,0,0,0,.0108-.062.2861.2861,0,0,0-.0036-.0659l-.0072-.033q-.0054-.0169-.0478-.111c-.0991-.2172-.15-.329-.1541-.3363A.0985.0985,0,0,0,19.0732,6.6879Z"/>
                <path  d="M19.8915,6.49l.039.0024a.0663.0663,0,0,1,.0333.0185.1292.1292,0,0,1,.03.0515q.001.0084.0014.5888.0023.5827.0036.5888a.09.09,0,0,0,.0485.0635.197.197,0,0,0,.0854.0105h.1237a.9138.9138,0,0,0,.2091-.0105.0952.0952,0,0,0,.0485-.0635c.0014-.004.0014-.2.0014-.5872s.0008-.5848.0022-.5888a.1368.1368,0,0,1,.0275-.0491.0762.0762,0,0,1,.03-.0209.0861.0861,0,0,1,.0448-.004.0774.0774,0,0,1,.0239.008.1054.1054,0,0,1,.0485.0644q.001.0084.0014.5888l-.0014.5993a.3028.3028,0,0,1-.0261.0965.2628.2628,0,0,1-.1837.1585l-.0217.004q-.0185.0024-.2041.0024t-.2-.0024a.2544.2544,0,0,1-.1946-.1336.3024.3024,0,0,1-.0369-.0965c-.0043-.0209-.0058-.1552-.0058-.4038v-.22c0-.3909.0015-.592.0058-.6033a.09.09,0,0,1,.02-.033A.088.088,0,0,1,19.8915,6.49Z"/>
                <path  d="M21.421,6.49l.0391.0024.0166.0056a.09.09,0,0,1,.0391.0459c.0036.0064.0629.2324.1794.6773s.1765.6692.178.6732v.0185a.0939.0939,0,0,1-.0521.0909.0763.0763,0,0,1-.0593.0041.0886.0886,0,0,1-.0594-.06L21.6655,7.81l-.0332-.1295h-.3907l-.0355.1319q-.0336.1315-.0369.1375a.089.089,0,0,1-.0333.0459.0742.0742,0,0,1-.0984-.0024.0933.0933,0,0,1-.0354-.0579l-.0015-.0411.0015-.004.3523-1.3385a.091.091,0,0,1,.02-.033A.088.088,0,0,1,21.421,6.49Zm.0868.7231-.07-.2719-.0723.2695-.0724.2719H21.58Z"/>
                <path  d="M22.2545,6.49l.0391.0024a.066.066,0,0,1,.0332.0185.1281.1281,0,0,1,.03.0515q.001.0084.0014.63V7.814h.31q.3072,0,.3147.0024a.0867.0867,0,0,1,.07.074l.0022.0225A.0912.0912,0,0,1,23,8.0038l-.0181.0057-.4037.0024h-.3965V7.2952c0-.4843.0015-.732.0058-.7433a.09.09,0,0,1,.02-.033A.088.088,0,0,1,22.2545,6.49Z"/>
                <path  d="M24.5444,7.2043V6.4884h.2207l.0123.0185.102.1641.0962.1528.0058.0064.1078-.1713.1071-.17h.2221v.7207q0,.7227-.0014.7288a.0973.0973,0,0,1-.0485.0635.09.09,0,0,1-.05.0105L25.3,8.0055a.0743.0743,0,0,1-.03-.02.1213.1213,0,0,1-.0275-.05q-.0021-.0062-.0021-.5905V6.7619l-.0847.1359-.0875.1359v.029a.1729.1729,0,0,1-.0109.0716.1118.1118,0,0,1-.03.033.0861.0861,0,0,1-.0571.0145.0671.0671,0,0,1-.0355-.0121.1.1,0,0,1-.0369-.0475.2055.2055,0,0,1-.0058-.0555l-.0014-.0354-.0854-.1335-.0832-.1335-.0022.5824q0,.5851-.0014.5912a.095.095,0,0,1-.0463.0635.0971.0971,0,0,1-.0507.0105l-.02-.0064a.0745.0745,0,0,1-.0311-.0226.1089.1089,0,0,1-.02-.0346c-.0043-.0128-.0058-.13-.0058-.3547Z"/>
                <path  d="M26.1354,6.49a.114.114,0,0,1,.0261-.0016.2143.2143,0,0,1,.144.0571.1736.1736,0,0,1,.0354.0394.1527.1527,0,0,1,.0181.0289c.0051.0081.0413.0869.1078.2365.0666.148.1028.2285.1071.2414a.5213.5213,0,0,1,.0246.2075.6413.6413,0,0,1-.0152.0764c-.0058.0249-.0448.1166-.1165.2759-.0665.148-.1027.2269-.1078.2349a.312.312,0,0,1-.0311.0475.2059.2059,0,0,1-.204.074.231.231,0,0,1-.063-.0226.2281.2281,0,0,1-.094-.0949l-.2135-.4738a.5558.5558,0,0,1-.026-.115v-.103a.5757.5757,0,0,1,.026-.1158l.2135-.473a.2174.2174,0,0,1,.1237-.107A.2334.2334,0,0,1,26.1354,6.49Zm.0384.1979a.0462.0462,0,0,0-.0333.004.0584.0584,0,0,0-.0166.012c-.0051.0049-.0391.08-.1035.2245s-.0991.2228-.102.2308a.2483.2483,0,0,0-.013.0515v.078a.2359.2359,0,0,0,.013.0515c.0029.0089.0362.0853.102.2309s.0984.2212.1035.2268a.045.045,0,0,0,.026.0145.04.04,0,0,0,.0333-.0024A.0412.0412,0,0,0,26.2,7.7979c.0037-.0056.0246-.05.0615-.1319l.1-.2228c.03-.0644.0463-.1022.05-.1126A.2808.2808,0,0,0,26.422,7.24V7.2316a.4616.4616,0,0,0-.0109-.0619q-.0054-.0169-.05-.1134l-.1-.222c-.0369-.0829-.0578-.1255-.0615-.13A.0506.0506,0,0,0,26.1738,6.6879Z"/>
                <path  d="M27.08,6.49c.0073-.0016.089-.0016.2446-.0016l.246.0016a.2287.2287,0,0,1,.1432.078.2853.2853,0,0,1,.0666.1593.127.127,0,0,1-.0079.07l-.0181.0265a.0831.0831,0,0,1-.0615.0265l-.0239-.0016a.0832.0832,0,0,1-.0391-.0273.1246.1246,0,0,1-.026-.0676A.0681.0681,0,0,0,27.6,6.7289.058.058,0,0,0,27.563,6.69l-.0073-.0041h-.4572l-.0044.0041a.0312.0312,0,0,0-.0087.0313c.0022.0024.1122.16.3292.4714q.3277.4681.3336.4754a.2328.2328,0,0,1,.0318.0949.2238.2238,0,0,1-.0593.1858.1832.1832,0,0,1-.089.0555,1.4756,1.4756,0,0,1-.2257.0081h-.0449c-.1541,0-.2359-.0008-.2446-.0024a.2255.2255,0,0,1-.1425-.0781.2719.2719,0,0,1-.0666-.1584.14.14,0,0,1,.0073-.0676.0874.0874,0,0,1,.0166-.0249.0763.0763,0,0,1,.0413-.0266.0444.0444,0,0,1,.0217-.0048.077.077,0,0,1,.0427.0129.0487.0487,0,0,1,.0188.0145.1032.1032,0,0,1,.0275.07l.0036.0242a.0648.0648,0,0,0,.0369.0394l.0079.004h.4537l.0058-.0016c.0108-.0056.0144-.0161.0108-.0314q0-.0036-.33-.4738c-.2185-.3113-.3292-.47-.3335-.4754a.2458.2458,0,0,1-.03-.1608.22.22,0,0,1,.0318-.0821A.1923.1923,0,0,1,27.08,6.49Z"/>
                <path  d="M28.089,7.2043V6.4884h.3964c.2641,0,.3987,0,.4038.0016a.0867.0867,0,0,1,.07.074l.0021.0225a.0939.0939,0,0,1-.0521.0909.0865.0865,0,0,1-.02.0064c-.0051.0016-.11.0016-.3148.0016h-.31v.3009h.45l.0072.0024a.0941.0941,0,0,1,.0615.066.1176.1176,0,0,1,.0037.03.1013.1013,0,0,1-.0037.029.0953.0953,0,0,1-.0615.0659l-.0072.0017h-.2243l-.2257.0024v.3724l-.0015.3813a.1114.1114,0,0,1-.0166.037.1055.1055,0,0,1-.03.0265.0968.0968,0,0,1-.0506.0105l-.02-.0064a.0751.0751,0,0,1-.0311-.0226.1128.1128,0,0,1-.02-.0346c-.0043-.0128-.0057-.13-.0057-.3547Z"/>
                <path  d="M29.2705,7.25V6.4884h.3965c.264,0,.3986,0,.4037.0016a.0867.0867,0,0,1,.07.074l.0021.0225a.0939.0939,0,0,1-.0521.0909.0865.0865,0,0,1-.02.0064c-.0051.0016-.11.0016-.3148.0016h-.31v.4658h.1389a.5958.5958,0,0,1,.1613.01.0879.0879,0,0,1,.0391.0451.0994.0994,0,0,1,.0087.0434.11.11,0,0,1-.0087.0435.107.107,0,0,1-.0391.045.2375.2375,0,0,1-.0795.0081l-.0818.0024h-.1389V7.814h.31q.3072,0,.3148.0024a.0868.0868,0,0,1,.07.074l.0021.0225a.0913.0913,0,0,1-.0542.0909l-.0181.0057-.4037.0024h-.3965Z"/>
                <path  d="M30.452,6.6243V6.4884h.874v.1359a.8776.8776,0,0,1-.0072.1641.0865.0865,0,0,1-.0485.0555.0737.0737,0,0,1-.0333.0064.0835.0835,0,0,1-.0384-.008.1021.1021,0,0,1-.0448-.0539.2612.2612,0,0,1-.0058-.066v-.037h-.1722v.6218c0,.4167,0,.6267-.0014.6307a.0929.0929,0,0,1-.0463.0635.0962.0962,0,0,1-.05.0105l-.02-.0064a.0772.0772,0,0,1-.0319-.0226.11.11,0,0,1-.02-.0346c-.0036-.0128-.0058-.1263-.0058-.3418V6.6854h-.1722v.037a.2314.2314,0,0,1-.0058.066.0867.0867,0,0,1-.05.0555.0737.0737,0,0,1-.0333.0064.0794.0794,0,0,1-.0369-.008.0893.0893,0,0,1-.0441-.0539A1.0324,1.0324,0,0,1,30.452,6.6243Z"/>
                <path  d="M19.2287,9.2635V8.5476h.3169c.2185.0008.3343.004.348.0081l.0073.0016a.2587.2587,0,0,1,.1758.1608.3572.3572,0,0,1,.0246.0925v.4159a.2892.2892,0,0,1-.1281.2228.27.27,0,0,1-.1034.04c-.0123.0008-.0927.0016-.241.0016h-.2243V9.74a1.7357,1.7357,0,0,1-.0094.2759.0938.0938,0,0,1-.0383.0451.098.098,0,0,1-.0507.01l-.02-.0064a.0742.0742,0,0,1-.0311-.0225.111.111,0,0,1-.02-.0346c-.0043-.0129-.0058-.13-.0058-.3548Zm.63-.5164c-.0036-.0016-.08-.0024-.2294-.0024h-.2243v.5478h.2243a1.3642,1.3642,0,0,0,.246-.01.0869.0869,0,0,0,.0413-.0458.306.306,0,0,0,.0086-.0965v-.313l-.0036-.01A.0922.0922,0,0,0,19.8582,8.7471Z"/>
                <path  d="M20.4826,8.5492l.0391.0024a.0667.0667,0,0,1,.0332.0185.1281.1281,0,0,1,.03.0515q.0011.0084.0014.5824v.5767l.0261.0451.0239.0475h.0723l.0239-.0451.026-.0475V9.4534a2.7158,2.7158,0,0,1,.0094-.3524.0938.0938,0,0,1,.0558-.0531.0881.0881,0,0,1,.0224-.0024.078.078,0,0,1,.04.01.0905.0905,0,0,1,.0391.045.2454.2454,0,0,1,.0087.0829v.27l.0021.3273.0239.0451.0246.0475h.0716l.0261-.0475.0239-.0475v-.57q0-.58.0057-.5968a.0892.0892,0,0,1,.0225-.033.08.08,0,0,1,.0311-.025.0861.0861,0,0,1,.0448-.004.075.075,0,0,1,.0239.0081.1052.1052,0,0,1,.0485.0643c.0007.0056.0014.2084.0014.61v.6033l-.0477.09-.0543.1014a.0675.0675,0,0,1-.03.0306.0509.0509,0,0,1-.0312.012l-.1056.0024a.6759.6759,0,0,1-.1056-.004.1015.1015,0,0,1-.0557-.05l-.0073-.0136-.0094.0136a.0993.0993,0,0,1-.0557.05.6154.6154,0,0,1-.1034.004l-.1057-.0024a.0633.0633,0,0,1-.0333-.012.0888.0888,0,0,1-.03-.033c-.0036-.004-.0217-.037-.0536-.099l-.0484-.09V9.241q0-.6093.0079-.6274a.0856.0856,0,0,1,.02-.0354A.0882.0882,0,0,1,20.4826,8.5492Z"/>
                <path  d="M21.5917,9.2635V8.5476h.2207l.0123.0185.102.1641.0963.1528.0057.0065.1078-.1714.1071-.1705h.2222v.7207q0,.7228-.0015.7288a.0975.0975,0,0,1-.0485.0636.0911.0911,0,0,1-.05.01l-.0188-.0064a.0741.0741,0,0,1-.03-.02.1223.1223,0,0,1-.0275-.05q-.0021-.006-.0021-.59V8.8211l-.0847.1359-.0875.136v.0289a.1726.1726,0,0,1-.0109.0716.1106.1106,0,0,1-.03.033.0856.0856,0,0,1-.0571.0145.0654.0654,0,0,1-.0355-.0121.1.1,0,0,1-.0369-.0474A.2073.2073,0,0,1,21.94,9.126l-.0015-.0354-.0854-.1336L21.77,8.8235l-.0021.5824q0,.5851-.0015.5912a.0949.0949,0,0,1-.0463.0636.0978.0978,0,0,1-.0506.01l-.02-.0064a.0742.0742,0,0,1-.0311-.0225.113.113,0,0,1-.02-.0346c-.0043-.0129-.0058-.13-.0058-.3548Z"/>
                <path  d="M23.9548,9.2635V8.5476h.2206l.0123.0185.102.1641.0963.1528.0058.0065L24.5,8.7181l.107-.1705h.2222v.7207q0,.7228-.0015.7288a.0975.0975,0,0,1-.0485.0636.0911.0911,0,0,1-.05.01l-.0188-.0064a.0748.0748,0,0,1-.03-.02.1222.1222,0,0,1-.0274-.05q-.0023-.006-.0022-.59V8.8211l-.0847.1359-.0875.136v.0289a.171.171,0,0,1-.0109.0716.11.11,0,0,1-.03.033.0859.0859,0,0,1-.0572.0145.0651.0651,0,0,1-.0354-.0121.0983.0983,0,0,1-.0369-.0474.2025.2025,0,0,1-.0058-.0555l-.0015-.0354-.0854-.1336-.0832-.1335-.0021.5824q0,.5851-.0015.5912a.0946.0946,0,0,1-.0463.0636.0976.0976,0,0,1-.0506.01l-.02-.0064a.0748.0748,0,0,1-.0311-.0225.1151.1151,0,0,1-.02-.0346c-.0043-.0129-.0057-.13-.0057-.3548Z"/>
                <path  d="M25.5451,8.5492a.1126.1126,0,0,1,.026-.0016.2143.2143,0,0,1,.144.0571.178.178,0,0,1,.0354.0394.1534.1534,0,0,1,.0181.029c.0051.008.0413.0869.1078.2365.0666.148.1028.2284.1071.2413a.5217.5217,0,0,1,.0246.2075.643.643,0,0,1-.0152.0765c-.0058.0249-.0448.1166-.1165.2759-.0665.148-.1027.2268-.1078.2348a.312.312,0,0,1-.0311.0475.2055.2055,0,0,1-.204.074.2267.2267,0,0,1-.157-.1174l-.2135-.4738a.5623.5623,0,0,1-.026-.115v-.103a.5826.5826,0,0,1,.026-.1158l.2135-.473a.2174.2174,0,0,1,.1237-.107A.2323.2323,0,0,1,25.5451,8.5492Zm.0383.1979a.0473.0473,0,0,0-.0333.004.0588.0588,0,0,0-.0166.0121c-.0051.0048-.0391.08-.1035.2244s-.0991.2228-.102.2309a.2483.2483,0,0,0-.013.0515v.078a.2359.2359,0,0,0,.013.0515c.0029.0088.0362.0852.102.2308s.0984.2212.1035.2269a.0454.0454,0,0,0,.026.0144.04.04,0,0,0,.0333-.0024.0409.0409,0,0,0,.0166-.012c.0037-.0057.0246-.05.0615-.132l.1-.2228c.03-.0643.0463-.1021.05-.1126a.28.28,0,0,0,.0109-.0909v-.008a.463.463,0,0,0-.0109-.062q-.0054-.0168-.05-.1134l-.1-.222c-.0369-.0829-.0578-.1255-.0615-.13A.05.05,0,0,0,25.5834,8.7471Z"/>
                <path  d="M26.3909,8.5492c.0036-.0016.0636-.0016.18-.0016l.1888.0016a.2652.2652,0,0,1,.1983.14c.0036.0072.0376.0812.1013.2228a2.9414,2.9414,0,0,1,.1172.28l.0036.0105a.5306.5306,0,0,1,0,.214,1.44,1.44,0,0,1-.0854.21c-.0072.0177-.0188.0451-.0354.08-.0637.1416-.0984.2164-.1035.2245a.2844.2844,0,0,1-.0571.074.2472.2472,0,0,1-.1353.0635l-.1961.0024h-.178l-.0072-.004a.1017.1017,0,0,1,0-.19c.0043-.0008.0238-.0024.0571-.004h.0521V8.7447h-.0521a.181.181,0,0,1-.0571-.004.0873.0873,0,0,1-.0579-.0531.0973.0973,0,0,1-.0072-.0539.14.14,0,0,1,.0072-.029A.0838.0838,0,0,1,26.3909,8.5492Zm.3617.1979a.2122.2122,0,0,0-.0448-.0024h-.0406V9.8733h.0406a.1251.1251,0,0,0,.0615-.0105A.0675.0675,0,0,0,26.8,9.8363q.0054-.0085.1541-.3355.0423-.0952.0477-.111a.485.485,0,0,0,.0109-.0619.2926.2926,0,0,0-.0036-.066l-.0073-.033q-.0054-.0168-.0477-.111-.1486-.3258-.1541-.3362A.0984.0984,0,0,0,26.7526,8.7471Z"/>
                <path  d="M27.5709,8.5492l.0391.0024a.0674.0674,0,0,1,.0333.0185.1291.1291,0,0,1,.03.0515q.0012.0084.0015.5888.0021.5829.0036.5888a.09.09,0,0,0,.0485.0636.1977.1977,0,0,0,.0853.0105h.1238a.9213.9213,0,0,0,.2091-.0105.0955.0955,0,0,0,.0484-.0636c.0015-.004.0015-.1994.0015-.5872s.0007-.5848.0022-.5888a.1355.1355,0,0,1,.0275-.049.0762.0762,0,0,1,.03-.021.0865.0865,0,0,1,.0449-.004.0759.0759,0,0,1,.0239.0081.1054.1054,0,0,1,.0484.0643q.0012.0084.0015.5888l-.0015.5993a.3039.3039,0,0,1-.026.0965.2629.2629,0,0,1-.1838.1585l-.0217.004q-.0185.0024-.204.0024t-.2-.0024a.2539.2539,0,0,1-.1946-.1335.3033.3033,0,0,1-.0369-.0965c-.0044-.0209-.0058-.1553-.0058-.4038v-.22c0-.391.0014-.5921.0058-.6033a.102.102,0,0,1,.0665-.062Z"/>
                <path  d="M28.7524,8.5492l.0391.0024a.0674.0674,0,0,1,.0333.0185.1291.1291,0,0,1,.03.0515q.0012.0084.0015.63v.6218h.31q.3071,0,.3147.0024a.0866.0866,0,0,1,.07.074l.0021.0225a.0912.0912,0,0,1-.0542.0909l-.0181.0056-.4037.0024H28.68V9.3544c0-.4842.0014-.732.0058-.7432a.102.102,0,0,1,.0665-.062Z"/>
                <path  d="M29.8616,9.3094V8.5476h.3965c.2641,0,.3986,0,.4037.0016a.0868.0868,0,0,1,.07.074l.0021.0225a.0938.0938,0,0,1-.052.0909.0844.0844,0,0,1-.02.0065c-.0051.0016-.11.0016-.3147.0016h-.31V9.21h.1389a.5945.5945,0,0,1,.1614.0105.0875.0875,0,0,1,.039.045.1.1,0,0,1,.0087.0435.11.11,0,0,1-.0087.0434.1078.1078,0,0,1-.039.0451.2391.2391,0,0,1-.08.008l-.0818.0024h-.1389v.465h.31q.3071,0,.3147.0024a.0866.0866,0,0,1,.07.074l.0021.0225a.0912.0912,0,0,1-.0542.0909l-.0181.0056-.4037.0024h-.3965Z"/>
            </g>
            <g  id="labels" gorn="0.1.1.7">
                <g >
                    <path  d="M7.25,21.2325a.0964.0964,0,0,1-.0293-.0713A.0977.0977,0,0,1,7.25,21.09a.0937.0937,0,0,1,.0713-.03h.2959v-.2959a.0947.0947,0,0,1,.03-.07.0994.0994,0,0,1,.0713-.03.0968.0968,0,0,1,.07.03.0948.0948,0,0,1,.03.07V21.06h.2959a.1015.1015,0,0,1,.0723.1729.1005.1005,0,0,1-.0723.0293H7.8189v.2959a.0989.0989,0,0,1-.03.0722.0955.0955,0,0,1-.07.0293.1016.1016,0,0,1-.1015-.1015v-.2959H7.3209A.0965.0965,0,0,1,7.25,21.2325Z"/>
                    <path  d="M8.6666,20.8438v-.3623a.0987.0987,0,0,1,.0293-.07.0964.0964,0,0,1,.0712-.0293.102.102,0,0,1,.0723.0293.0992.0992,0,0,1,.0293.07v.3223l.2959.7558.2959-.7558v-.3223a.0992.0992,0,0,1,.0293-.07.0966.0966,0,0,1,.0713-.0293.1007.1007,0,0,1,.0723.0293.0992.0992,0,0,1,.0293.07v.36L9.2593,21.877a.0946.0946,0,0,1-.0947.0645.0959.0959,0,0,1-.0957-.0645Z"/>
                    <path  d="M7.22,24.24a.0955.0955,0,0,1,.0293-.07.0937.0937,0,0,1,.0713-.03h.2959V22.9834H7.3209a.0964.0964,0,0,1-.0713-.0292.1.1,0,0,1-.0293-.0723.0987.0987,0,0,1,.0293-.07.0961.0961,0,0,1,.0713-.0293h.7939a.1006.1006,0,1,1,0,.2011H7.8189V24.14h.2959a.0976.0976,0,0,1,.0723.03.0958.0958,0,0,1,.0293.07.1016.1016,0,0,1-.1016.1015H7.3209a.0936.0936,0,0,1-.0713-.03A.098.098,0,0,1,7.22,24.24Z"/>
                    <path  d="M8.6666,24.24v-1.458h.2666l.5273,1.2031V22.8819a.0992.0992,0,0,1,.0293-.07.0963.0963,0,0,1,.0713-.0293.1.1,0,0,1,.0723.0293.0992.0992,0,0,1,.0293.07v1.46H9.3951l-.5264-1.2V24.24a.1016.1016,0,0,1-.1016.1015.0936.0936,0,0,1-.0712-.03A.098.098,0,0,1,8.6666,24.24Z"/>
                </g>
                <g >
                    <path  d="M13.4517,21.2461v-.0839a.0981.0981,0,0,1,.0293-.0713.0939.0939,0,0,1,.0713-.03h.7939a.1017.1017,0,0,1,.1016.1016v.0839a.0987.0987,0,0,1-.0293.0723.0974.0974,0,0,1-.0723.03h-.7939a.0939.0939,0,0,1-.0713-.03A.0987.0987,0,0,1,13.4517,21.2461Z"/>
                    <path  d="M14.898,20.8448v-.3623a.0992.0992,0,0,1,.0293-.07.0963.0963,0,0,1,.0713-.0293.102.102,0,0,1,.0723.0293.0992.0992,0,0,1,.0293.07v.3222l.2959.7559.2958-.7559v-.3222a.0992.0992,0,0,1,.0293-.07.0964.0964,0,0,1,.0713-.0293.1.1,0,0,1,.1016.1v.36l-.4033,1.0352a.0948.0948,0,0,1-.0947.0644A.0961.0961,0,0,1,15.3,21.878Z"/>
                    <path  d="M13.4517,24.2413a.0962.0962,0,0,1,.0293-.07.0938.0938,0,0,1,.0713-.03h.2959V22.9844h-.2959a.0963.0963,0,0,1-.0713-.0293.1014.1014,0,0,1,0-.1426.0966.0966,0,0,1,.0713-.0292h.7939a.1006.1006,0,1,1,0,.2011H14.05v1.1563h.2959a.0973.0973,0,0,1,.0723.03.0962.0962,0,0,1,.0293.07.098.098,0,0,1-.0293.0712.097.097,0,0,1-.0723.03h-.7939a.0935.0935,0,0,1-.0713-.03A.098.098,0,0,1,13.4517,24.2413Z"/>
                    <path  d="M14.898,24.2413v-1.458h.2666l.5273,1.2031V22.8829a.1.1,0,0,1,.0293-.07.0967.0967,0,0,1,.0713-.0292.1.1,0,0,1,.1016.1v1.46h-.2676l-.5263-1.2v1.0987a.1017.1017,0,0,1-.1016.1015.0935.0935,0,0,1-.0713-.03A.098.098,0,0,1,14.898,24.2413Z"/>
                </g>
                <g >
                    <path  d="M28.5982,20.0655v-.27h.9961v.27a.1.1,0,0,1-.1016.1015.0964.0964,0,0,1-.0713-.0293.1.1,0,0,1-.0293-.0722v-.0684h-.1953V21.254a.0951.0951,0,0,1-.03.0712.0931.0931,0,0,1-.07.03.1035.1035,0,0,1-.1015-.1015V19.9971H28.8v.0684a.1.1,0,0,1-.0292.0722.102.102,0,0,1-.0723.0293.0963.0963,0,0,1-.0713-.0293A.1.1,0,0,1,28.5982,20.0655Z"/>
                    <path  d="M30.0445,21.254V19.7959h.6924a.307.307,0,0,1,.3037.3038v.1035a.31.31,0,0,1-.3037.3047h-.1162l.4062.6953a.11.11,0,0,1,.0137.0508.1017.1017,0,0,1-.1016.1015.0957.0957,0,0,1-.0879-.05l-.4658-.7978h-.1387v.7461a.1017.1017,0,0,1-.1015.1015.0935.0935,0,0,1-.0713-.03A.098.098,0,0,1,30.0445,21.254Zm.2021-.9483h.49a.1.1,0,0,0,.0713-.0312.0968.0968,0,0,0,.03-.0713V20.1a.0973.0973,0,0,0-.03-.0723.1027.1027,0,0,0-.0713-.03h-.49Z"/>
                    <path  d="M31.49,21.254a.0962.0962,0,0,1,.0293-.07.0938.0938,0,0,1,.0713-.03h.2959V19.9971H31.59a.0963.0963,0,0,1-.0713-.0293.1014.1014,0,0,1,0-.1426.0966.0966,0,0,1,.0713-.0293h.7939a.1006.1006,0,1,1,0,.2012h-.2959v1.1563h.2959a.0973.0973,0,0,1,.0723.03.0962.0962,0,0,1,.0293.07.098.098,0,0,1-.0293.0712.097.097,0,0,1-.0723.03H31.59a.0935.0935,0,0,1-.0713-.03A.098.098,0,0,1,31.49,21.254Z"/>
                    <path  d="M32.9361,21.0518V20.51a.391.391,0,0,1,.084-.2461l.2724-.3525a.2875.2875,0,0,1,.24-.1153h.2978a.1006.1006,0,1,1,0,.2012h-.2978a.0955.0955,0,0,0-.08.04l-.2725.3486a.2046.2046,0,0,0-.042.124v.542a.099.099,0,0,0,.03.0713.0932.0932,0,0,0,.07.03h.39a.0986.0986,0,0,0,.0713-.03.0951.0951,0,0,0,.03-.0713v-.206h-.1972a.1.1,0,0,1-.1006-.1006.0977.0977,0,0,1,.0293-.0713.0937.0937,0,0,1,.0713-.03h.3994v.4082a.3068.3068,0,0,1-.3037.3037h-.39a.2883.2883,0,0,1-.2138-.0888A.292.292,0,0,1,32.9361,21.0518Z"/>
                    <path  d="M28.5982,23.6543a.1184.1184,0,0,1,.0127-.0507l.7939-1.3575a.0957.0957,0,0,1,.0879-.05.1.1,0,0,1,.0723.0293.0993.0993,0,0,1,.0293.07.11.11,0,0,1-.0137.0518l-.7939,1.3584a.0976.0976,0,0,1-.0879.05.0939.0939,0,0,1-.0713-.03A.0981.0981,0,0,1,28.5982,23.6543Z"/>
                    <path  d="M30.0445,23.6543v-1.458h.6924a.291.291,0,0,1,.2138.0889.2848.2848,0,0,1,.09.2129v.3594a.307.307,0,0,1-.3037.3047h-.49v.4921a.0977.0977,0,0,1-.0293.0713.0989.0989,0,0,1-.0722.03.0939.0939,0,0,1-.0713-.03A.0981.0981,0,0,1,30.0445,23.6543Zm.2021-.6943h.49a.0986.0986,0,0,0,.0713-.03.0957.0957,0,0,0,.03-.0722v-.3594a.0961.0961,0,0,0-.03-.07.1027.1027,0,0,0-.0713-.03h-.49Z"/>
                    <path  d="M31.49,23.5118V22.2959a.0993.0993,0,0,1,.0293-.07.0966.0966,0,0,1,.0713-.0293.1024.1024,0,0,1,.0723.0293.0992.0992,0,0,1,.0292.07v1.1622l.0567.0957h.082l.0235-.044c.0136-.0254.0244-.0449.0322-.0576v-.6465a.0955.0955,0,0,1,.03-.0713.1012.1012,0,0,1,.0712-.0283.0994.0994,0,0,1,.07.0283.0954.0954,0,0,1,.03.0713v.6465c.0078.0127.0186.0322.0323.0576s.02.04.0234.044h.082l.0576-.0957V22.2959a.0993.0993,0,0,1,.0293-.07.0968.0968,0,0,1,.0713-.0293.1.1,0,0,1,.0723.0293.0993.0993,0,0,1,.0293.07v1.2159l-.1133.1943a.0981.0981,0,0,1-.0889.05h-.1953a.1112.1112,0,0,1-.1006-.07.1186.1186,0,0,1-.1015.07h-.1944a.0985.0985,0,0,1-.09-.05Z"/>
                    <path  d="M32.9361,23.6543v-1.458h.2519l.2461.35.2442-.35h.2539v1.458a.1017.1017,0,0,1-.1016.1016.094.094,0,0,1-.0713-.03.0981.0981,0,0,1-.0293-.0713V22.4737l-.1953.28v.0517a.1035.1035,0,0,1-.1006.1026.0994.0994,0,0,1-.0713-.03.0975.0975,0,0,1-.03-.0723V22.754l-.1944-.2764v1.1767a.0977.0977,0,0,1-.0293.0713.0989.0989,0,0,1-.0722.03.0939.0939,0,0,1-.0713-.03A.0981.0981,0,0,1,32.9361,23.6543Z"/>
                </g>
                <g transform="translate(29.4977 15.701)" >
                    <g >
                        <text style="font-size: 2px;font-family:Droid Sans" >GND</text>
                    </g>
                </g>
                <g >
                    <path  d="M12.5923,12.9v-.0839a.0981.0981,0,0,1,.0293-.0713.094.094,0,0,1,.0713-.03h.794a.1017.1017,0,0,1,.1015.1016V12.9a.0983.0983,0,0,1-.0293.0723.0973.0973,0,0,1-.0722.03h-.794a.094.094,0,0,1-.0713-.03A.0987.0987,0,0,1,12.5923,12.9Z"/>
                    <path  d="M14.0386,12.4991v-.3623a.0992.0992,0,0,1,.0293-.07.0964.0964,0,0,1,.0713-.0293.1016.1016,0,0,1,.0723.0293.0992.0992,0,0,1,.0293.07v.3222l.2959.7559.2959-.7559v-.3222a.0987.0987,0,0,1,.0293-.07.0961.0961,0,0,1,.0713-.0293.1.1,0,0,1,.0722.0293.0987.0987,0,0,1,.0293.07v.36l-.4033,1.0352a.0947.0947,0,0,1-.0947.0644.0959.0959,0,0,1-.0957-.0644Z"/>
                    <path  d="M12.5923,15.9971v-1.46a.1.1,0,0,1,.0293-.07.0968.0968,0,0,1,.0713-.0293.102.102,0,0,1,.0723.0293.1.1,0,0,1,.0293.07V15.795h.6924a.0972.0972,0,0,1,.0722.03.0958.0958,0,0,1,.0293.07.1017.1017,0,0,1-.1015.1015Z"/>
                    <path  d="M13.7378,15.2168a.4714.4714,0,0,1,.0489-.206l.2138-.43a.2713.2713,0,0,1,.0948-.1025.2478.2478,0,0,1,.1386-.0411.2523.2523,0,0,1,.1416.0411.2713.2713,0,0,1,.0948.1025l.2138.43a.4512.4512,0,0,1,0,.4121l-.2138.4307a.2713.2713,0,0,1-.0948.1025.2531.2531,0,0,1-.1416.041.2485.2485,0,0,1-.1386-.041.2713.2713,0,0,1-.0948-.1025l-.2138-.4307A.4358.4358,0,0,1,13.7378,15.2168Zm.2022,0a.27.27,0,0,0,.0264.1163l.2158.4277a.0532.0532,0,0,0,.0517.0342.0577.0577,0,0,0,.0567-.0323l.2138-.43a.3127.3127,0,0,0,.0274-.1163.26.26,0,0,0-.0274-.1162l-.2158-.4257a.0572.0572,0,0,0-.1064,0l-.2158.4257A.2724.2724,0,0,0,13.94,15.2168Z"/>
                    <path  d="M14.8785,15.8956l.4062-1.3868a.1032.1032,0,0,1,.0362-.0517.0927.0927,0,0,1,.0595-.02.1009.1009,0,0,1,.0625.02.0924.0924,0,0,1,.0362.0517l.4033,1.3868a.0952.0952,0,0,1-.03.0712.1007.1007,0,0,1-.0732.03.1019.1019,0,0,1-.0606-.0195.1033.1033,0,0,1-.0351-.0527l-.0782-.2676h-.4463l-.0781.2676a.1009.1009,0,0,1-.0976.0722.0992.0992,0,0,1-.0733-.03A.096.096,0,0,1,14.8785,15.8956Zm.34-.4405h.3262L15.38,14.9Z"/>
                    <path  d="M16.03,15.8956a.0962.0962,0,0,1,.0293-.07.0939.0939,0,0,1,.0713-.03h.0977V14.6387H16.13a.0964.0964,0,0,1-.0713-.0293.1014.1014,0,0,1,0-.1426.0968.0968,0,0,1,.0713-.0293h.3721a.2861.2861,0,0,1,.1611.0479.2972.2972,0,0,1,.1084.12l.2041.4053a.4512.4512,0,0,1,0,.4121l-.2021.4082a.27.27,0,0,1-.1065.1191.3053.3053,0,0,1-.165.0469H16.13a.0937.0937,0,0,1-.0713-.03A.098.098,0,0,1,16.03,15.8956Zm.4-.1006h.0723a.0905.0905,0,0,0,.0879-.0557l.206-.4062a.3127.3127,0,0,0,.0274-.1163.26.26,0,0,0-.0274-.1162l-.206-.4052a.0914.0914,0,0,0-.0879-.0567H16.43Z"/>
                </g>
                <g >
                    <path  d="M7.2486,12.8877a.0964.0964,0,0,1-.0293-.0712.0981.0981,0,0,1,.0293-.0713.0939.0939,0,0,1,.0713-.03h.2959V12.419a.0944.0944,0,0,1,.03-.07.099.099,0,0,1,.0712-.03.0972.0972,0,0,1,.07.03.0947.0947,0,0,1,.03.07v.2959h.2959a.1017.1017,0,0,1,.1016.1016.0964.0964,0,0,1-.0293.0712.1.1,0,0,1-.0723.0293H7.8179v.2959a.0989.0989,0,0,1-.03.0723.0962.0962,0,0,1-.07.0293.1017.1017,0,0,1-.1015-.1016V12.917H7.32A.0963.0963,0,0,1,7.2486,12.8877Z"/>
                    <path  d="M8.6656,12.4991v-.3623a.0987.0987,0,0,1,.0293-.07.0961.0961,0,0,1,.0713-.0293.1016.1016,0,0,1,.0722.0293.0987.0987,0,0,1,.0293.07v.3222l.2959.7559L9.46,12.459v-.3222a.0992.0992,0,0,1,.0293-.07.0964.0964,0,0,1,.0713-.0293.1.1,0,0,1,.1016.1v.36l-.4033,1.0352a.0948.0948,0,0,1-.0948.0644.0959.0959,0,0,1-.0957-.0644Z"/>
                    <path  d="M7.2193,15.9971v-1.46a.1.1,0,0,1,.0293-.07.0966.0966,0,0,1,.0713-.0293.102.102,0,0,1,.0722.0293.0991.0991,0,0,1,.0293.07V15.795h.6924a.0975.0975,0,0,1,.0723.03.0962.0962,0,0,1,.0293.07.1017.1017,0,0,1-.1016.1015Z"/>
                    <path  d="M8.3648,15.2168a.4727.4727,0,0,1,.0488-.206l.2139-.43a.271.271,0,0,1,.0947-.1025.2478.2478,0,0,1,.1387-.0411.2528.2528,0,0,1,.1416.0411.271.271,0,0,1,.0947.1025l.2139.43a.4512.4512,0,0,1,0,.4121l-.2139.4307a.271.271,0,0,1-.0947.1025.2535.2535,0,0,1-.1416.041.2485.2485,0,0,1-.1387-.041.271.271,0,0,1-.0947-.1025l-.2139-.4307A.4369.4369,0,0,1,8.3648,15.2168Zm.2021,0a.27.27,0,0,0,.0264.1163l.2158.4277a.0534.0534,0,0,0,.0518.0342.0576.0576,0,0,0,.0566-.0323l.2139-.43a.3124.3124,0,0,0,.0273-.1163.26.26,0,0,0-.0273-.1162l-.2158-.4257a.0573.0573,0,0,0-.1065,0l-.2158.4257A.2724.2724,0,0,0,8.5669,15.2168Z"/>
                    <path  d="M9.5054,15.8956l.4063-1.3868a.1024.1024,0,0,1,.0361-.0517.0929.0929,0,0,1,.06-.02.1013.1013,0,0,1,.0625.02.0922.0922,0,0,1,.0361.0517l.4033,1.3868a.0951.0951,0,0,1-.03.0712.1037.1037,0,0,1-.1338.0108.1041.1041,0,0,1-.0352-.0527l-.0781-.2676H9.7857l-.0781.2676a.1009.1009,0,0,1-.0977.0722.0991.0991,0,0,1-.0732-.03A.0961.0961,0,0,1,9.5054,15.8956Zm.34-.4405h.3261l-.164-.5556Z"/>
                    <path  d="M10.6568,15.8956a.0962.0962,0,0,1,.0293-.07.0938.0938,0,0,1,.0713-.03h.0976V14.6387h-.0976a.0963.0963,0,0,1-.0713-.0293.1014.1014,0,0,1,0-.1426.0966.0966,0,0,1,.0713-.0293h.372a.2864.2864,0,0,1,.1612.0479.2986.2986,0,0,1,.1084.12l.2041.4053a.4512.4512,0,0,1,0,.4121l-.2022.4082a.27.27,0,0,1-.1064.1191.3056.3056,0,0,1-.1651.0469h-.372a.0935.0935,0,0,1-.0713-.03A.098.098,0,0,1,10.6568,15.8956Zm.4-.1006h.0722a.09.09,0,0,0,.0879-.0557l.2061-.4062a.3143.3143,0,0,0,.0273-.1163.2609.2609,0,0,0-.0273-.1162l-.2061-.4052a.0912.0912,0,0,0-.0879-.0567h-.0722Z"/>
                </g>
            </g>
        </g>
    </g>
</svg>
